<?xml version="1.0" encoding="utf-8"?>
<!-- Generator: Adobe Illustrator 23.0.0, SVG Export Plug-In . SVG Version: 6.00 Build 0)  -->
<svg version="1.1" id="图层_1" xmlns="http://www.w3.org/2000/svg" xmlns:xlink="http://www.w3.org/1999/xlink" x="0px" y="0px"
	 viewBox="0 0 60 60" style="enable-background:new 0 0 60 60;" xml:space="preserve">
<g>
	<path d="M13,2v11H2V2H13 M15,0H0v15h15V0L15,0z"/>
</g>
<g>
	<path d="M13,47v11H2V47H13 M15,45H0v15h15V45L15,45z"/>
</g>
<g>
	<path d="M58,47v11H47V47H58 M60,45H45v15h15V45L60,45z"/>
</g>
<g>
	<polygon points="8.5,14 6.5,14 6.5,47 8.5,47 8.5,14 	"/>
</g>
<g>
	<polygon points="46,51.5 15,51.5 15,53.5 46,53.5 46,51.5 	"/>
</g>
<g>
	<path d="M39,2c10.5,0,19,8.5,19,19s-8.5,19-19,19s-19-8.5-19-19S28.5,2,39,2 M39,0C27.4,0,18,9.4,18,21s9.4,21,21,21s21-9.4,21-21
		S50.6,0,39,0L39,0z"/>
</g>
</svg>
