<?xml version="1.0" encoding="utf-8"?>
<!-- Generator: Adobe Illustrator 23.0.0, SVG Export Plug-In . SVG Version: 6.00 Build 0)  -->
<svg version="1.1" id="图层_1" xmlns="http://www.w3.org/2000/svg" xmlns:xlink="http://www.w3.org/1999/xlink" x="0px" y="0px"
	 viewBox="0 0 200 200" style="enable-background:new 0 0 200 200;" xml:space="preserve">
<style type="text/css">
	.st0{fill:#67B63B;}
</style>
<path class="st0" d="M100,13.9C52,13.9,12.9,53,12.9,101S52,188.1,100,188.1s87.1-39.1,87.1-87.1S148,13.9,100,13.9z M100,175.6
	c-41.1,0-74.6-33.5-74.6-74.6S58.9,26.4,100,26.4s74.6,33.5,74.6,74.6S141.1,175.6,100,175.6z"/>
<path class="st0" d="M76,125.8c0,6.9,4.9,9.7,10.8,6.2l42.9-24.8c6-3.4,6-9.1,0-12.5L86.8,70c-6-3.4-10.8-0.6-10.8,6.3V125.8z"/>
</svg>
