<svg xmlns="http://www.w3.org/2000/svg" viewBox="0 0 193 194.99"><defs><style>.cls-1{fill:none;stroke:#000;stroke-linecap:square;stroke-linejoin:round;}</style></defs><title>资源 1</title><g id="图层_2" data-name="图层 2"><g id="Layer_1" data-name="Layer 1"><polygon class="cls-1" points="96.5 111.35 48.5 83.64 0.5 111.35 48.5 137.59 96.5 111.35"/><polygon class="cls-1" points="48.5 137.59 48.5 194.49 96.5 166.78 96.5 111.35 48.5 137.59"/><polygon class="cls-1" points="0.5 111.35 0.5 166.78 48.5 194.49 48.5 137.59 0.5 111.35"/><polygon class="cls-1" points="192.5 111.35 144.5 83.64 96.5 111.35 144.5 137.59 192.5 111.35"/><polygon class="cls-1" points="144.5 137.59 144.5 194.49 192.5 166.78 192.5 111.35 144.5 137.59"/><polygon class="cls-1" points="96.5 111.35 96.5 166.78 144.5 194.49 144.5 137.59 96.5 111.35"/><polygon class="cls-1" points="144.5 28.21 96.5 0.5 48.5 28.21 96.5 54.45 144.5 28.21"/><polygon class="cls-1" points="96.5 54.45 96.5 111.35 144.5 83.64 144.5 28.21 96.5 54.45"/><polygon class="cls-1" points="48.5 28.21 48.5 83.64 96.5 111.35 96.5 54.45 48.5 28.21"/></g></g></svg>