<svg xmlns="http://www.w3.org/2000/svg" viewBox="0 0 251 220.02"><defs><style>.cls-1,.cls-2{fill:none;stroke:#000;}.cls-1{stroke-linecap:square;stroke-linejoin:round;}.cls-2{stroke-miterlimit:10;stroke-width:0.8px;}</style></defs><title>资源 2</title><g id="图层_2" data-name="图层 2"><g id="Layer_1" data-name="Layer 1"><polygon class="cls-1" points="250.5 189.8 233.34 179.89 216.17 189.8 233.34 199.18 250.5 189.8"/><polygon class="cls-1" points="233.34 199.18 233.34 219.53 250.5 209.62 250.5 189.8 233.34 199.18"/><polygon class="cls-1" points="216.17 189.8 216.17 209.62 233.34 219.53 233.34 199.18 216.17 189.8"/><line class="cls-1" x1="125.49" y1="35.57" x2="125.49" y2="57.96"/><line class="cls-1" x1="40.47" y1="187.85" x2="68.21" y2="170.93"/><line class="cls-1" x1="211.53" y1="187.85" x2="183.79" y2="170.93"/><path class="cls-2" d="M170.62,132.66h-15.7a111.93,111.93,0,0,1-2.43,24.7c1.19-.07,3.23-.26,4.3-.33A116.11,116.11,0,0,0,159,136h12.24"/><path class="cls-2" d="M112.45,157.78l4.25.08c-.54-5.91-.9-13-1-21.5H112c0-1.26,0-2.49,0-3.7H96.55c0,1.34,0,2.65,0,3.92h15.18C111.78,144.83,112,151.84,112.45,157.78Z"/><path class="cls-2" d="M126.58,100.57l7.44,0a88.94,88.94,0,0,0-2.62-13.1c-1.83-.07-3.72-.1-5.67-.1s-3.84,0-5.67.1a89.21,89.21,0,0,0-2.61,13.12C120.36,100.58,123.39,100.57,126.58,100.57Z"/><path class="cls-2" d="M125.72,77.28h0Z"/><path class="cls-2" d="M125.73,187.21Z"/><path class="cls-2" d="M125.74,77.28h0Z"/><path class="cls-2" d="M125.16,187.2h0Z"/><path class="cls-2" d="M125.88,77.28h0Z"/><path class="cls-2" d="M125.74,77.28h0Z"/><path class="cls-2" d="M125.74,77.28h0Z"/><polygon class="cls-2" points="125.73 187.21 125.73 187.21 125.74 187.21 125.73 187.21 125.73 187.21"/><path class="cls-2" d="M125.66,187.21h0Z"/><path class="cls-2" d="M125.81,187.21h0Z"/><path class="cls-2" d="M125.74,187.21h0Z"/><path class="cls-2" d="M139.52,136.36h-3.77c-.08,8.51-.44,15.61-1,21.51,7-.08,12.85-.27,17.72-.51a111.93,111.93,0,0,0,2.43-24.7H139.51C139.52,133.87,139.52,135.1,139.52,136.36Z"/><path class="cls-2" d="M131.4,87.49c-2.66-9.1-5.58-10.15-5.67-10.18s-3,1.08-5.67,10.18c1.83-.07,3.72-.1,5.67-.1S129.57,87.42,131.4,87.49Z"/><path class="cls-2" d="M100,161.46c-1.77-.07-3.44-.15-5-.23-.3-1.35-.58-2.75-.84-4.22-4-.28-7.22-.6-9.75-.92A46.12,46.12,0,0,0,95.6,174.18c3,.62,6.74,1.28,11.19,1.83A47.3,47.3,0,0,1,100,161.46Z"/><path class="cls-2" d="M134,100.59l4,0q.28,2.91.51,6.1c5.28.1,9.83.25,13.76.45-2-8.34-4.86-14.36-8-18.69-3.83-.46-8.16-.83-12.9-1A88.94,88.94,0,0,1,134,100.59Z"/><path class="cls-2" d="M139.51,132.66h15.41a111.87,111.87,0,0,0-2.59-25.48c-3.93-.2-8.48-.35-13.76-.45C139.1,114.14,139.44,122.72,139.51,132.66Z"/><path class="cls-2" d="M96.55,132.66H80.85a72.43,72.43,0,0,0,3.6,23.43c2.53.32,5.73.64,9.75.92a121.19,121.19,0,0,1-1.58-20.43"/><path class="cls-2" d="M126.35,157.92c-3.44,0-6.65,0-9.65-.06a103.65,103.65,0,0,0,3.24,19.19c1.87.07,3.8.11,5.79.11s3.93,0,5.8-.11a104.37,104.37,0,0,0,3.24-19.18C132.13,157.9,129.33,157.92,126.35,157.92Z"/><path class="cls-2" d="M134,100.59l-7.44,0c-3.19,0-6.22,0-9.13,0"/><path class="cls-2" d="M112,132.66c0,1.21,0,2.44,0,3.7h3.77"/><path class="cls-2" d="M135.75,136.36h3.77c0-1.26,0-2.49,0-3.7"/><path class="cls-2" d="M138.57,106.73q-.23-3.2-.51-6.1l-4,0"/><path class="cls-2" d="M139.51,132.66c-.07-9.94-.41-18.52-.94-25.93"/><path class="cls-2" d="M117.45,100.61l-4,0q-.27,2.91-.5,6.1"/><path class="cls-2" d="M112.9,106.75c-.53,7.4-.87,16-.94,25.91"/><path class="cls-2" d="M116.7,157.86c3,0,6.21.06,9.65.06,3,0,5.78,0,8.42,0,.54-5.9.9-13,1-21.51h-20C115.8,144.87,116.16,152,116.7,157.86Z"/><line class="cls-2" x1="115.72" y1="136.36" x2="135.75" y2="136.36"/><path class="cls-2" d="M106.79,176c-4.45-.55-8.22-1.21-11.19-1.83,10.44,10.28,23.4,12.45,28.22,12.91C120.4,186.65,113,184.68,106.79,176Z"/><path class="cls-2" d="M131.53,177.05c4.84-.18,9.26-.56,13.15-1,3.1-4.33,5.92-10.34,7.81-18.65-4.87.24-10.71.43-17.72.51A104.37,104.37,0,0,1,131.53,177.05Z"/><path class="cls-2" d="M119.94,177.05c2.7,9.29,5.71,10.13,5.79,10.16s3.1-.87,5.8-10.16c-1.87.07-3.8.11-5.8.11S121.81,177.12,119.94,177.05Z"/><path class="cls-2" d="M112.77,161.78c-4.76-.06-9-.18-12.73-.32A47.3,47.3,0,0,0,106.79,176c3.89.48,8.3.86,13.15,1a103.65,103.65,0,0,1-3.24-19.19"/><path class="cls-2" d="M112.45,157.78c-.42-5.94-.67-12.95-.67-21.2H96.6"/><path class="cls-2" d="M94.2,157c.26,1.47.54,2.87.84,4.22,1.56.08,3.23.16,5,.23"/><path class="cls-2" d="M96.6,136.58h-4A121.19,121.19,0,0,0,94.2,157"/><path class="cls-2" d="M100,161.46c3.75.14,8,.26,12.73.32-.11-1.27-.22-2.61-.32-4"/><path class="cls-2" d="M125.93,187.2h.37c.33,0,.79,0,1.35-.11C126.81,187.17,126.22,187.19,125.93,187.2Z"/><path class="cls-2" d="M125.7,77.28h-.12l-.47,0Z"/><path class="cls-2" d="M84.43,108.45a72.9,72.9,0,0,0-3.58,23.79v.42h15.7a111.59,111.59,0,0,1,2.58-25.43C92.69,107.57,87.93,108,84.43,108.45Z"/><path class="cls-2" d="M99.13,107.23c3.93-.2,8.49-.37,13.77-.48q.22-3.19.5-6.1l4,0a89.21,89.21,0,0,1,2.61-13.12c-4.73.17-9.06.54-12.89,1C104,92.83,101.09,98.87,99.13,107.23Z"/><path class="cls-2" d="M100.55,83.38c-3.56.51-6.65,1.07-9.19,1.6a48.94,48.94,0,0,0-10.44,15.44"/><path class="cls-2" d="M86.23,103.92c2.53-.22,5.32-.39,9-.59a64.14,64.14,0,0,1,4.8-13.81"/><path class="cls-2" d="M96.55,132.66H112c.07-9.93.41-18.51.94-25.91-5.28.11-9.84.28-13.77.48A111.59,111.59,0,0,0,96.55,132.66Z"/><path class="cls-2" d="M107.17,88.49c7.11-9.75,15.59-11,17.94-11.18a48.66,48.66,0,0,0-21,6.5"/><path class="cls-2" d="M100.08,89.52a46.4,46.4,0,0,1,2.84-5"/><path class="cls-2" d="M86.23,103.92c-2.29.19-4.36.41-6.74.71a.13.13,0,0,1-.14-.17c.49-1.41,1-2.75,1.57-4a54.68,54.68,0,0,0-10.14,31.82v.42H80.85v-.42a72.9,72.9,0,0,1,3.58-23.79c-7.29.92-9.07,1.84-9.07,1.84s1.78-.92,9.07-1.84"/><path class="cls-2" d="M125.11,77.31l.47,0a54.84,54.84,0,0,0-25,6.1l3.18-.42a.13.13,0,0,1,.12.21"/><path class="cls-2" d="M80.92,100.42c-.56,1.29-1.08,2.63-1.57,4a.13.13,0,0,0,.14.17c2.38-.3,4.45-.52,6.74-.71"/><path class="cls-2" d="M102.92,84.52q.47-.7.93-1.35a.13.13,0,0,0-.12-.21l-3.18.42"/><path class="cls-2" d="M127.65,187.09c-.56.07-1,.1-1.35.11a54.74,54.74,0,0,0,37.05-14.88s-2.71.87-7.48,1.86C145.43,184.46,132.47,186.63,127.65,187.09Z"/><path class="cls-2" d="M171,160.78c-1.65.2-3.94.41-6.14.6a44.63,44.63,0,0,1-9,12.8c4.77-1,7.45-1.85,7.48-1.86a55.06,55.06,0,0,0,12.76-18.06s-.26.48-3.37,1.1C172.27,157.26,171.6,159.06,171,160.78Z"/><path class="cls-2" d="M123.82,187.09c.56.07,1,.1,1.34.11h.38C125.25,187.19,124.66,187.17,123.82,187.09Z"/><path class="cls-2" d="M149.14,84.73a41.49,41.49,0,0,1,6.8,5.65c4.76,1,7.41,1.85,7.41,1.85s-2.65-.86-7.41-1.85a46,46,0,0,1,11.07,18c7.54.94,9.1,1.92,9.1,1.92s-1.56-1-9.1-1.92a72.69,72.69,0,0,1,3.61,23.87v.42h10.07c0-.14,0-.28,0-.42a54.77,54.77,0,0,0-35.1-51.36"/><path class="cls-2" d="M130.45,77.67l-.11-.17c-1,0-3.49-.21-4.46-.22l.48,0C126.9,77.34,129.33,77.53,130.45,77.67Z"/><path class="cls-2" d="M171.22,136h4.63c0,7.63-1.66,13.62-3.11,19.4,3.11-.62,3.37-1.1,3.37-1.1a54.62,54.62,0,0,0,4.58-21.6H170.62"/><path class="cls-2" d="M95.6,174.18c-4.77-1-7.44-1.85-7.48-1.86a54.74,54.74,0,0,0,37,14.88c-.32,0-.78,0-1.34-.11C119,186.63,106,184.46,95.6,174.18Z"/><path class="cls-2" d="M84.45,156.09c-7.3-.91-9.09-1.83-9.09-1.83a55.21,55.21,0,0,0,12.76,18.06s2.71.87,7.48,1.86A46.12,46.12,0,0,1,84.45,156.09Z"/><path class="cls-2" d="M80.85,132.66H70.78a54.62,54.62,0,0,0,4.58,21.6s1.79.92,9.09,1.83A72.43,72.43,0,0,1,80.85,132.66Z"/><path class="cls-2" d="M126.36,77.31l-.48,0h-.11Z"/><path class="cls-2" d="M127.65,187.09c4.82-.46,17.78-2.63,28.22-12.91-3,.62-6.74,1.28-11.19,1.83C138.46,184.68,131.07,186.65,127.65,187.09Z"/><path class="cls-2" d="M119.94,177.05c-4.85-.18-9.26-.56-13.15-1,6.22,8.67,13.61,10.64,17,11.08.84.08,1.43.1,1.72.11h.19C125.65,187.18,122.64,186.34,119.94,177.05Z"/><path class="cls-2" d="M172,136H159A116.11,116.11,0,0,1,156.79,157"/><path class="cls-2" d="M164.87,161.38c2.2-.19,4.49-.4,6.14-.6.59-1.72,1.26-3.52,1.73-5.42"/><path class="cls-2" d="M144.68,176c-3.89.48-8.31.86-13.15,1-2.7,9.29-5.71,10.13-5.8,10.16h.2c.29,0,.88,0,1.72-.11C131.07,186.65,138.46,184.68,144.68,176Z"/><polygon class="cls-2" points="125.73 187.21 125.74 187.21 125.73 187.21 125.73 187.21"/><path class="cls-2" d="M152.49,157.36c-1.89,8.31-4.71,14.32-7.81,18.65,4.45-.55,8.22-1.21,11.19-1.83a44.63,44.63,0,0,0,9-12.8c-2.81.25-5.31.35-9.17.54"/><path class="cls-2" d="M164.87,161.38c-2.81.25-5.31.35-9.17.54.35-1.55.81-3.18,1.09-4.89"/><path class="cls-2" d="M130.45,77.67c-1.12-.14-3.55-.33-4.09-.36a39,39,0,0,1,4.2.54Z"/><path class="cls-2" d="M129.71,76.45a32.11,32.11,0,0,1,3.86,8.65c4.52.16,8.74.46,12.64.85"/><path class="cls-2" d="M140.43,76.74A24.9,24.9,0,0,0,127,72.62a8.63,8.63,0,0,0-1.08,0h.2s1.5.47,3.33,3.35"/><path class="cls-2" d="M129.45,76c0,.07.09.14.13.22"/><path class="cls-2" d="M143.31,78.86a34.09,34.09,0,0,0-2.88-2.12"/><path class="cls-2" d="M129.58,76.24a2.39,2.39,0,0,1,.13.21"/><path class="cls-2" d="M146.21,86c1.3.13,2.57.26,3.79.41a.16.16,0,0,0,.15-.26,40.36,40.36,0,0,0-6.84-7.24"/><path class="cls-2" d="M154.92,132.66h15.7v-.42A72.69,72.69,0,0,0,167,108.37c-3.48-.44-8.23-.87-14.68-1.19A111.87,111.87,0,0,1,154.92,132.66Z"/><path class="cls-2" d="M152.33,107.18c6.45.32,11.2.75,14.68,1.19a46,46,0,0,0-11.07-18c-3.06-.64-7-1.33-11.64-1.89C147.47,92.82,150.36,98.84,152.33,107.18Z"/><line class="cls-2" x1="158.98" y1="135.96" x2="154.92" y2="132.66"/><line class="cls-2" x1="175.98" y1="135.96" x2="170.62" y2="132.66"/><line class="cls-2" x1="155.57" y1="161.92" x2="152.49" y2="157.36"/><line class="cls-2" x1="112.77" y1="161.78" x2="116.7" y2="157.86"/><line class="cls-2" x1="92.62" y1="136.58" x2="96.55" y2="132.66"/><line class="cls-2" x1="125.9" y1="72.67" x2="125.88" y2="77.28"/><line class="cls-2" x1="133.57" y1="85.1" x2="131.4" y2="87.49"/><line class="cls-2" x1="144.3" y1="88.49" x2="150.18" y2="86.36"/><line class="cls-2" x1="95.28" y1="103.33" x2="99.13" y2="107.23"/><line class="cls-2" x1="103.77" y1="83.07" x2="107.17" y2="88.49"/><line class="cls-2" x1="79.41" y1="104.53" x2="84.43" y2="108.45"/><polygon class="cls-1" points="22.34 198.49 11.42 192.19 0.5 198.49 11.42 204.46 22.34 198.49"/><polygon class="cls-1" points="11.42 204.46 11.42 217.4 22.34 211.1 22.34 198.49 11.42 204.46"/><polygon class="cls-1" points="0.5 198.49 0.5 211.1 11.42 217.4 11.42 204.46 0.5 198.49"/><polygon class="cls-1" points="44.17 198.49 33.25 192.19 22.34 198.49 33.25 204.46 44.17 198.49"/><polygon class="cls-1" points="33.25 204.46 33.25 217.4 44.17 211.1 44.17 198.49 33.25 204.46"/><polygon class="cls-1" points="22.34 198.49 22.34 211.1 33.25 217.4 33.25 204.46 22.34 198.49"/><polygon class="cls-1" points="33.25 179.58 22.34 173.28 11.42 179.58 22.34 185.55 33.25 179.58"/><polygon class="cls-1" points="22.34 185.55 22.34 198.49 33.25 192.19 33.25 179.58 22.34 185.55"/><polygon class="cls-1" points="11.42 179.58 11.42 192.19 22.34 198.49 22.34 185.55 11.42 179.58"/><path d="M143.51,27.8A6,6,0,0,0,142,25.26h0a6.09,6.09,0,0,0-4.28-1.77h0a6,6,0,0,0-2.4.49l-.33.14L127.82,17,137,7.89l2.25-.06a.19.19,0,0,0,.16-.09l2.92-4.92a.19.19,0,0,0,0-.24L139.76.06a.17.17,0,0,0-.23,0L134.61,3a.23.23,0,0,0-.1.16l-.06,2.25-9.13,9.11L118.84,8l0-.27a6.08,6.08,0,0,0-9.36-6.09.21.21,0,0,0-.08.12.29.29,0,0,0,0,.14.13.13,0,0,0,.07.06l3.28,1.83c1,.57,1.22,2.09.48,3.4s-2.15,1.93-3.15,1.37l-3-1.64a.17.17,0,0,0-.15,0,.21.21,0,0,0-.11.09.15.15,0,0,0,0,.11,6.09,6.09,0,0,0,8.45,5.21l.33-.15,6,6-3.07,3.08-.9-.89a1,1,0,0,0-1.35,0l-.71.72a.91.91,0,0,0-.06,1.26l.33.37L107,31.58a.92.92,0,0,0,0,1.3l2.47,2.48a.92.92,0,0,0,1.3,0l8.94-8.93.37.33a.92.92,0,0,0,1.26-.05L122,26a.93.93,0,0,0,.29-.64,1,1,0,0,0-.26-.66l-.93-.93,3.05-3.12,7.58,7.58,0,.27A6.08,6.08,0,0,0,142,33.77a.2.2,0,0,0,0-.26l-.07,0-4-1.08a1.9,1.9,0,0,1-1.22-1.17,3.27,3.27,0,0,1-.08-2,3.2,3.2,0,0,1,1-1.62,1.91,1.91,0,0,1,1.7-.47l4,1.07h.12a.2.2,0,0,0,.19-.19.29.29,0,0,0,0-.09ZM134.76,5.56a.21.21,0,0,0,.05-.13l.07-2.22,4.7-2.8,2.31,2.32-2.74,4.69-2.25.08a.18.18,0,0,0-.14.06l-9.18,9.17-2-2Zm-24.67,29.9-3.23-3.21,9.34-9.32,1.62,1.62,1.55,1.61Zm12-10.13-1.44,1.47-5.11-5.14L117,20.18Zm-1.31-1.83-2-2,3.07-3.08,2,2Zm18.58,3.23a2.31,2.31,0,0,0-.52-.06,3,3,0,0,0-2.66,2.4,3.54,3.54,0,0,0,.11,2.34,2.22,2.22,0,0,0,1.46,1.34l3.89,1-1.08.64a5.69,5.69,0,0,1-8.45-6.19.21.21,0,0,0-.06-.18L115.79,11.78a.19.19,0,0,0-.22,0,5.85,5.85,0,0,1-2.68.67h0a5.7,5.7,0,0,1-5.35-3.76l-.48-1.33L109.94,9a2,2,0,0,0,1,.26,3.23,3.23,0,0,0,2.67-1.77c.85-1.51.56-3.27-.63-3.94l-3.11-1.77L111,1.35A5.69,5.69,0,0,1,118.42,8a.24.24,0,0,0,0,.18l16.31,16.3a.2.2,0,0,0,.23,0,5.75,5.75,0,0,1,2.66-.66h0a5.71,5.71,0,0,1,4.9,2.8l.66,1.12Z"/></g></g></svg>