<svg xmlns="http://www.w3.org/2000/svg" viewBox="0 0 251 204.61"><defs><style>.cls-1{fill:none;stroke:#000;stroke-linecap:square;stroke-linejoin:round;}</style></defs><title>资源 3</title><g id="图层_2" data-name="图层 2"><g id="Layer_1" data-name="Layer 1"><polygon class="cls-1" points="72.7 137.55 36.6 116.71 0.5 137.55 36.6 157.28 72.7 137.55"/><polygon class="cls-1" points="36.6 157.28 36.6 200.07 72.7 179.23 72.7 137.55 36.6 157.28"/><polygon class="cls-1" points="0.5 137.55 0.5 179.23 36.6 200.07 36.6 157.28 0.5 137.55"/><polygon class="cls-1" points="250.5 136.27 211.33 113.66 172.16 136.27 211.33 157.68 250.5 136.27"/><polygon class="cls-1" points="211.33 157.68 211.33 204.11 250.5 181.5 250.5 136.27 211.33 157.68"/><polygon class="cls-1" points="172.16 136.27 172.16 181.5 211.33 204.11 211.33 157.68 172.16 136.27"/><line class="cls-1" x1="123.26" y1="58.51" x2="123.26" y2="104.33"/><line class="cls-1" x1="72.7" y1="137.32" x2="123.26" y2="104.33"/><line class="cls-1" x1="171.98" y1="136.18" x2="123.26" y2="104.33"/><path d="M156.7,53a11.46,11.46,0,0,0-2.92-4.85h0a11.58,11.58,0,0,0-8.15-3.39h0a11.59,11.59,0,0,0-4.58.94l-.63.27L126.79,32.38l17.46-17.33,4.29-.12a.34.34,0,0,0,.3-.18l5.58-9.38a.36.36,0,0,0,0-.45L149.55.11a.38.38,0,0,0-.45-.06l-9.37,5.58a.36.36,0,0,0-.19.3l-.12,4.29L122,27.6,109.66,15.25l.09-.51A11.59,11.59,0,0,0,91.91,3.12a.39.39,0,0,0-.15.23.36.36,0,0,0,.06.28.43.43,0,0,0,.12.11l6.25,3.48c1.91,1.09,2.33,4,.93,6.49s-4.11,3.68-6,2.62l-5.78-3.14a.45.45,0,0,0-.29,0,.41.41,0,0,0-.22.18.41.41,0,0,0,0,.19A11.58,11.58,0,0,0,99.06,24.37a11.29,11.29,0,0,0,3.83-.91l.63-.27L115,34.64,109.1,40.5l-1.72-1.7a1.82,1.82,0,0,0-1.27-.51,1.87,1.87,0,0,0-1.3.52l-1.36,1.36a1.75,1.75,0,0,0-.1,2.41l.62.71L87,60.22a1.75,1.75,0,0,0-.07,2.48l4.73,4.72a1.75,1.75,0,0,0,2.48.07l17-17,.71.63a1.74,1.74,0,0,0,2.39-.1l1.39-1.39a1.73,1.73,0,0,0,.55-1.23,1.75,1.75,0,0,0-.48-1.25L114,45.34l5.82-6,14.44,14.45-.08.52a11.58,11.58,0,0,0,19.7,10,.36.36,0,0,0-.06-.48.37.37,0,0,0-.14-.07l-7.71-2.07a3.6,3.6,0,0,1-2.32-2.23,6.06,6.06,0,0,1-.15-3.86,6.16,6.16,0,0,1,1.94-3.11,3.63,3.63,0,0,1,3.24-.88l7.57,2h.22a.38.38,0,0,0,.37-.36.33.33,0,0,0,0-.17ZM140,10.6a.37.37,0,0,0,.1-.25l.13-4.23,9-5.33,4.41,4.41-5.22,9-4.3.16a.4.4,0,0,0-.26.1l-17.51,17.5-3.8-3.8Zm-47,57-6.16-6.12,17.8-17.76,3.09,3.08,3,3.07Zm22.89-19.32-2.75,2.81-9.73-9.8,2.81-2.81Zm-2.49-3.48-3.8-3.8,5.86-5.86,3.8,3.8ZM148.8,51a3.64,3.64,0,0,0-1-.13,5.75,5.75,0,0,0-5.08,4.58,7,7,0,0,0,.21,4.45,4.25,4.25,0,0,0,2.8,2.57l7.41,2-2.05,1.22a10.75,10.75,0,0,1-5.54,1.54,11.19,11.19,0,0,1-2.68-.34,10.87,10.87,0,0,1-7.91-13,.35.35,0,0,0-.1-.33l-31-31.06a.36.36,0,0,0-.41,0,11,11,0,0,1-5.11,1.27h0a10.88,10.88,0,0,1-10.2-7.15L87.19,14l5.51,3.07a3.54,3.54,0,0,0,1.89.49,6.17,6.17,0,0,0,5.1-3.36c1.62-2.89,1.07-6.25-1.21-7.52L92.55,3.33l2.08-.75a10.86,10.86,0,0,1,14.23,12.68.36.36,0,0,0,.1.34l31.1,31.09a.38.38,0,0,0,.43.06,11,11,0,0,1,5.08-1.26h0a10.88,10.88,0,0,1,9.34,5.35L156.18,53Z"/></g></g></svg>