<?xml version="1.0" encoding="utf-8"?>
<!-- Generator: Adobe Illustrator 23.0.0, SVG Export Plug-In . SVG Version: 6.00 Build 0)  -->
<svg version="1.1" id="Layer_1" xmlns="http://www.w3.org/2000/svg" xmlns:xlink="http://www.w3.org/1999/xlink" x="0px" y="0px"
	 viewBox="0 0 512 512" style="enable-background:new 0 0 512 512;" xml:space="preserve">
<style type="text/css">
	.st0{fill:#F8B64C;}
	.st1{fill:#FFD15C;}
	.st2{fill:#40596B;}
	.st3{fill:#334A5E;}
	.st4{fill:#CDD6E0;}
	.st5{fill:#ACB3BA;}
</style>
<path class="st0" d="M211.2,41.5L98.1,174.8c-10.7,12.8-1.1,30.9,14.9,30.9h225.1c16,0,24.5-19.2,14.9-30.9L240,41.5
	C232.5,31.9,218.7,31.9,211.2,41.5z"/>
<path class="st1" d="M297.6,20.1L171.7,170.5c-11.7,13.9-2.1,35.2,16,35.2h252.8c18.1,0,27.7-21.3,16-35.2L330.7,20.1
	C322.1,10.5,306.1,10.5,297.6,20.1z"/>
<path class="st2" d="M407.5,423.3H104.5c-20.3,0-37.3-13.9-41.6-33.1L17.1,208.9h476.8L448,390.3
	C444.8,409.5,426.7,423.3,407.5,423.3z"/>
<g>
	<path class="st3" d="M475.7,245.2H36.3C16,245.2,0,229.2,0,208.9l0,0c0-20.3,16-36.3,36.3-36.3h439.5c20.3,0,36.3,16,36.3,36.3l0,0
		C512,229.2,496,245.2,475.7,245.2z"/>
	<circle class="st3" cx="163.2" cy="423.3" r="75.7"/>
	<circle class="st3" cx="348.8" cy="423.3" r="75.7"/>
</g>
<circle class="st4" cx="348.8" cy="423.3" r="35.2"/>
<path class="st5" d="M348.8,398.8c18.1,0,32,12.8,35.2,29.9c0-2.1,0-3.2,0-5.3c0-19.2-16-35.2-35.2-35.2s-35.2,16-35.2,35.2
	c0,2.1,0,3.2,0,5.3C316.8,411.6,330.7,398.8,348.8,398.8z"/>
<circle class="st4" cx="163.2" cy="423.3" r="35.2"/>
<path class="st5" d="M163.2,398.8c18.1,0,32,12.8,35.2,29.9c0-2.1,0-3.2,0-5.3c0-19.2-16-35.2-35.2-35.2s-35.2,16-35.2,35.2
	c0,2.1,0,3.2,0,5.3C131.2,411.6,145.1,398.8,163.2,398.8z"/>
</svg>
