<svg xmlns="http://www.w3.org/2000/svg" xmlns:xlink="http://www.w3.org/1999/xlink" viewBox="0 0 89.28 86.35"><defs><style>.cls-1,.cls-4{fill:none;}.cls-2{isolation:isolate;}.cls-3{clip-path:url(#clip-path);}.cls-4{stroke:#000;stroke-miterlimit:10;}.cls-5{clip-path:url(#clip-path-2);}.cls-6{clip-path:url(#clip-path-3);}.cls-7{clip-path:url(#clip-path-4);}.cls-8{clip-path:url(#clip-path-5);}.cls-9{clip-path:url(#clip-path-6);}</style><clipPath id="clip-path"><polygon class="cls-1" points="87.64 9.57 87.53 70.55 32.26 61.79 32.37 0.8 87.64 9.57"/></clipPath><clipPath id="clip-path-2"><polygon class="cls-1" points="57.02 24.57 56.91 85.55 1.64 76.78 1.75 15.8 57.02 24.57"/></clipPath><clipPath id="clip-path-3"><polygon class="cls-1" points="57.02 24.57 87.64 9.57 87.53 70.55 56.91 85.55 57.02 24.57"/></clipPath><clipPath id="clip-path-4"><polygon class="cls-1" points="56.91 85.55 1.64 76.78 32.26 61.79 87.53 70.55 56.91 85.55"/></clipPath><clipPath id="clip-path-5"><polygon class="cls-1" points="1.64 76.78 1.75 15.8 32.37 0.8 32.26 61.79 1.64 76.78"/></clipPath><clipPath id="clip-path-6"><polyline class="cls-1" points="1.75 15.8 32.37 0.8 87.64 9.57 57.02 24.57"/></clipPath></defs><title>1</title><g id="图层_2" data-name="图层 2"><g id="图层_1-2" data-name="图层 1"><g class="cls-2"><g class="cls-2"><g class="cls-3"><polygon class="cls-4" points="87.64 9.57 87.53 70.55 32.26 61.79 32.37 0.8 87.64 9.57"/></g></g><g class="cls-2"><g class="cls-5"><polygon class="cls-4" points="57.02 24.57 56.91 85.55 1.64 76.78 1.75 15.8 57.02 24.57"/></g></g><g class="cls-2"><g class="cls-6"><polygon class="cls-4" points="57.02 24.57 87.64 9.57 87.53 70.55 56.91 85.55 57.02 24.57"/></g></g><g class="cls-2"><g class="cls-7"><polygon class="cls-4" points="56.91 85.55 1.64 76.78 32.26 61.79 87.53 70.55 56.91 85.55"/></g></g><g class="cls-2"><g class="cls-8"><polygon class="cls-4" points="1.64 76.78 1.75 15.8 32.37 0.8 32.26 61.79 1.64 76.78"/></g></g><g class="cls-2"><g class="cls-9"><polygon class="cls-4" points="1.75 15.8 32.37 0.8 87.64 9.57 57.02 24.57 1.75 15.8"/></g></g></g></g></g></svg>