<svg xmlns="http://www.w3.org/2000/svg" viewBox="0 0 72.48 86.2"><defs><style>.cls-1{stroke:#000;stroke-miterlimit:10;}</style></defs><title>2</title><g id="图层_2" data-name="图层 2"><g id="图层_1-2" data-name="图层 1"><polygon points="48.32 43.19 48.32 42.33 48.32 42.33 48.32 43.19"/><polygon points="31.38 9.25 31.38 10.11 41.11 11.46 41.09 22.03 41.89 22.14 41.91 10.71 31.38 9.25"/><polygon points="17.18 8.14 30.59 10 30.59 9.14 16.39 7.17 16.35 27.67 17.15 27.79 17.18 8.14"/><polygon points="41.08 31.1 41.87 31.21 41.89 22.99 41.09 22.88 41.08 31.1"/><polygon points="9.99 37.02 9.6 36.96 9.6 36.96 9.6 36.96 0.04 35.64 0 59.93 0.8 60.04 0.84 36.61 9.6 37.82 9.99 37.88 9.99 37.02"/><polygon points="17.52 62.79 17.49 82.87 18.28 82.98 18.32 62.9 18.32 62.47 17.53 62.36 17.52 62.79"/><polygon points="47.75 66.13 32.52 64.02 32.52 64.87 39.77 65.88 39.77 65.44 40.57 65.56 40.57 65.99 48.55 67.09 48.56 58.02 47.76 57.91 47.75 66.13"/><polygon points="48.32 43.19 48.32 42.33 48.32 42.33 48.32 42.33 48.59 42.37 48.59 42.37 48.61 32.15 41.87 31.21 41.08 31.1 24.61 28.82 24.61 29.67 47.81 32.89 47.76 57.05 48.57 57.17 48.59 43.23 48.32 43.19"/><polygon points="10.35 60.94 10.41 27.7 23.81 29.56 23.81 28.71 17.15 27.79 16.35 27.67 9.62 26.74 9.6 36.96 9.99 37.02 9.99 37.88 9.6 37.82 9.55 61.69 17.52 62.79 17.53 62.36 18.32 62.47 18.32 62.9 31.72 64.76 31.73 63.91 10.35 60.94"/><polygon points="9.99 37.02 9.99 37.88 9.99 37.02 9.6 36.96 9.6 36.96 9.99 37.02"/><polygon points="48.59 42.37 48.59 42.37 48.32 42.33 48.32 43.19 48.59 43.23 57.48 44.46 57.45 58.4 58.25 58.51 58.27 43.71 48.59 42.37"/><polygon points="57.43 67.89 58.23 68 58.24 59.36 57.45 59.25 57.43 67.89"/><polygon points="48.32 42.33 48.32 42.33 48.59 42.37 48.59 42.37 48.59 42.37 48.32 42.33"/><polygon points="39.77 65.44 39.77 65.88 39.73 85.95 40.53 86.06 40.57 65.99 40.57 65.56 39.77 65.44"/><polygon points="31.7 75.76 32.5 75.87 32.52 64.87 31.72 64.76 31.7 75.76"/><polygon points="31.73 63.91 31.72 64.76 32.52 64.87 32.52 64.02 31.73 63.91"/><polygon points="53.99 63.67 53.99 64.1 53.95 78.85 54.74 78.96 54.78 64.21 54.78 63.78 53.99 63.67"/><polygon points="62.54 35.23 62.8 35.26 62.82 25.04 56.09 24.11 55.29 24 55.22 24.84 62.02 25.78 61.96 35.93 61.95 36.15 62.76 36 62.8 36.12 62.53 36.08 62.54 35.23"/><polygon points="41.09 22.88 41.89 22.99 41.89 22.14 41.09 22.03 41.09 22.88"/><polygon points="24.61 28.82 23.81 28.71 23.81 29.56 24.61 29.67 24.61 28.82"/><polygon points="47.76 57.05 47.76 57.91 48.56 58.02 48.57 57.17 47.76 57.05"/><polygon points="57.45 58.4 57.45 59.25 58.24 59.36 58.25 58.51 57.45 58.4"/><polyline points="30.74 0.94 55.33 4.34 55.29 24 56.09 24.11 56.13 3.6 30.6 0.06"/><polygon points="31.38 10.11 31.38 9.25 30.59 9.14 30.59 10 31.38 10.11"/><polygon points="62.8 35.26 62.54 35.23 62.53 36.08 62.8 36.12 71.69 37.35 71.64 60.79 72.44 60.9 72.48 36.6 62.8 35.26"/><line class="cls-1" x1="30.9" y1="0.45" x2="16.78" y2="7.57"/><line class="cls-1" x1="55.6" y1="4.01" x2="41.48" y2="11.13"/><line class="cls-1" x1="56.01" y1="24.22" x2="41.89" y2="31.35"/><line class="cls-1" x1="62.28" y1="25.63" x2="48.16" y2="32.75"/><line class="cls-1" x1="71.97" y1="37.06" x2="57.85" y2="44.18"/><line class="cls-1" x1="9.87" y1="31.26" x2="0.33" y2="36.07"/><line class="cls-1" x1="16.77" y1="23.67" x2="9.8" y2="27.19"/><line class="cls-1" x1="10.05" y1="54.84" x2="0.5" y2="59.65"/><line class="cls-1" x1="62.73" y1="35.64" x2="48.61" y2="42.76"/><line class="cls-1" x1="72.2" y1="60.43" x2="58.08" y2="67.55"/><line class="cls-1" x1="57.85" y1="61.88" x2="48.34" y2="66.68"/><line class="cls-1" x1="32.21" y1="75.43" x2="18.09" y2="82.56"/><line class="cls-1" x1="54.5" y1="78.63" x2="40.38" y2="85.76"/></g></g></svg>