<svg xmlns="http://www.w3.org/2000/svg" xmlns:xlink="http://www.w3.org/1999/xlink" viewBox="0 0 89.17 86.07"><defs><style>.cls-1,.cls-4{fill:none;}.cls-2{isolation:isolate;}.cls-3{clip-path:url(#clip-path);}.cls-4{stroke:#000;stroke-miterlimit:10;}.cls-5{clip-path:url(#clip-path-2);}.cls-6{clip-path:url(#clip-path-3);}.cls-7{clip-path:url(#clip-path-4);}.cls-8{clip-path:url(#clip-path-5);}.cls-9{clip-path:url(#clip-path-6);}</style><clipPath id="clip-path"><polyline class="cls-1" points="33.49 2.3 32.37 0.8 87.64 9.57 87.53 70.55 32.26 61.79 33.49 60.83"/></clipPath><clipPath id="clip-path-2"><polyline class="cls-1" points="56.91 85.55 1.64 76.78 1.75 15.8"/></clipPath><clipPath id="clip-path-3"><polyline class="cls-1" points="87.64 9.57 87.53 70.55 56.91 85.55"/></clipPath><clipPath id="clip-path-4"><polygon class="cls-1" points="56.91 85.55 1.64 76.78 32.26 61.79 87.53 70.55 56.91 85.55"/></clipPath><clipPath id="clip-path-5"><polyline class="cls-1" points="32.3 51.15 32.26 61.79 1.64 76.78 1.75 15.8 32.37 0.8 32.3 18.92"/></clipPath><clipPath id="clip-path-6"><polyline class="cls-1" points="1.75 15.8 32.37 0.8 87.64 9.57"/></clipPath></defs><title>3</title><g id="图层_2" data-name="图层 2"><g id="图层_1-2" data-name="图层 1"><g class="cls-2"><g class="cls-2"><g class="cls-3"><polygon class="cls-4" points="87.64 9.57 87.53 70.55 32.26 61.79 32.37 0.8 87.64 9.57"/></g></g><g class="cls-2"><g class="cls-5"><polyline class="cls-4" points="56.91 85.55 1.64 76.78 1.75 15.8"/></g></g><g class="cls-2"><g class="cls-6"><polyline class="cls-4" points="87.64 9.57 87.53 70.55 56.91 85.55"/></g></g><g class="cls-2"><g class="cls-7"><polygon class="cls-4" points="56.91 85.55 1.64 76.78 32.26 61.79 87.53 70.55 56.91 85.55"/></g></g><g class="cls-2"><g class="cls-8"><polyline class="cls-4" points="32.3 58.44 32.26 61.79 1.64 76.78 1.75 15.8 32.37 0.8 32.3 21.41"/></g></g><g class="cls-2"><g class="cls-9"><polyline class="cls-4" points="1.75 15.8 32.37 0.8 87.64 9.57"/></g></g></g><polygon points="56.09 14.47 56.06 29.97 55.16 29.84 55.19 15.31 37.4 12.84 37.37 27.38 36.47 27.25 36.5 11.76 56.09 14.47"/><polygon points="31.82 34.34 31.81 35.3 31.36 35.23 25.05 34.36 25.02 51.91 24.12 51.79 24.16 33.28 31.36 34.28 31.82 34.34"/><polygon points="68.44 39.41 68.41 57.93 67.51 57.8 67.54 40.25 61.13 39.36 60.78 39.31 60.78 38.35 61.13 38.4 68.44 39.41"/><path d="M61.13,38.4l-.35,0v1l.35,0,0,18-6-.84v-.48l-.9-.13v.49L38.25,54.23v-.48l-.9-.13v.49l-6-.84,0-18,.45.06v-1l-.46-.06,0-7.73,5.09.7.9.13,17.79,2.46.9.13,5.08.7ZM60.2,56.31l0-24.8-28-3.88-.05,24.81,28,3.87"/><polygon points="38.26 53.75 38.26 54.23 38.23 69.24 37.33 69.12 37.36 54.11 37.36 53.62 38.26 53.75"/><polygon points="55.07 56.08 55.07 56.56 55.04 71.57 54.14 71.44 54.17 56.44 54.17 55.95 55.07 56.08"/></g></g></svg>