<svg xmlns="http://www.w3.org/2000/svg" viewBox="0 0 84 83.98"><title>5</title><g id="图层_2" data-name="图层 2"><g id="图层_1-2" data-name="图层 1"><path d="M39.49,52.6h0L20.14,41.53a.54.54,0,0,0-.26-.07.48.48,0,0,0-.26.07L.26,52.6A.49.49,0,0,0,0,53V72.4a.5.5,0,0,0,.26.45L19.62,83.91a.53.53,0,0,0,.52,0L39.49,72.85a.5.5,0,0,0,.26-.45V53A.53.53,0,0,0,39.49,52.6Zm-20.13,30L1,72.11V53.94L19.36,64.42Zm.52-19.06L1.56,53l18.3-10.45L38.16,53Zm18.84,8.59-.09,0L20.4,82.58V64.42l.08,0L38.72,53.94Z"/><path d="M83.74,52.6,64.38,41.53a.48.48,0,0,0-.26-.07.54.54,0,0,0-.26.07L44.51,52.6a.49.49,0,0,0-.26.44V72.4a.5.5,0,0,0,.26.45L63.86,83.91a.53.53,0,0,0,.52,0L83.74,72.85A.5.5,0,0,0,84,72.4V53A.53.53,0,0,0,83.74,52.6Zm-20.14,30L45.28,72.11V53.94L63.6,64.42Zm.52-19.06L45.82,53.06,64.12,42.6,82.43,53.06ZM83,72.11l-.08,0L64.64,82.58V64.42l.09,0L83,53.94Z"/><path d="M59.23,36.18a3.24,3.24,0,0,0,2.13.81,3.27,3.27,0,0,0,1.09-6.36l-.57-.21V17.63l.57-.21a3.27,3.27,0,0,0-1.09-6.36,3.24,3.24,0,0,0-2.13.81l-.46.4L45.11,4.48l.1-.61a3.46,3.46,0,0,0,.06-.59,3.29,3.29,0,0,0-6.57,0,2.75,2.75,0,0,0,.07.59l.1.61L25.22,12.27l-.47-.4a3.24,3.24,0,0,0-2.13-.81,3.27,3.27,0,0,0-1.08,6.36l.57.21V30.42l-.57.21A3.27,3.27,0,0,0,22.62,37a3.2,3.2,0,0,0,2.13-.81l.47-.4L38.7,43.47l.07.41a3.26,3.26,0,0,0,6.46,0l.07-.41,13.47-7.69Zm4.37-2.49a2.25,2.25,0,1,1-2.24-2.25A2.24,2.24,0,0,1,63.6,33.69ZM61.36,12.08a2.25,2.25,0,1,1-2.25,2.25A2.24,2.24,0,0,1,61.36,12.08ZM42,1a2.25,2.25,0,1,1-2.25,2.25A2.25,2.25,0,0,1,42,1ZM39.41,5.36l.46.4A3.26,3.26,0,0,0,42,6.57a3.22,3.22,0,0,0,2.13-.81l.46-.4,13.66,7.79-.11.61a5.15,5.15,0,0,0-.07.59,2.74,2.74,0,0,0,.07.58l.11.61L44.59,23.33l-.46-.39a3.18,3.18,0,0,0-4.26,0l-.46.39L25.75,15.54l.11-.61a5.27,5.27,0,0,0,.07-.58,2.75,2.75,0,0,0-.07-.59l-.11-.61Zm4.84,20A2.25,2.25,0,1,1,42,23.14,2.25,2.25,0,0,1,44.25,25.39ZM20.4,14.33a2.25,2.25,0,1,1,2.24,2.25A2.24,2.24,0,0,1,20.4,14.33Zm2.24,21.6a2.25,2.25,0,1,1,2.25-2.24A2.24,2.24,0,0,1,22.64,35.93Zm16.59,5.69-.44.69-13-7.45.11-.6a5.15,5.15,0,0,0,.07-.59,3.29,3.29,0,0,0-2.2-3.08l-.57-.2V17.6l.57-.21a3.51,3.51,0,0,0,1-.61l.46-.39,13.66,7.79-.1.61a3.88,3.88,0,0,0-.07.58,3.27,3.27,0,0,0,2.19,3.08l.57.21v11.4l-.57.21A3.4,3.4,0,0,0,39.23,41.62Zm2.77,4a2.25,2.25,0,1,1,2.25-2.24A2.24,2.24,0,0,1,42,45.61Zm3.2-3.28-.45-.69a3.26,3.26,0,0,0-1.68-1.33l-.57-.21V28.69l.57-.21a3.28,3.28,0,0,0,2.2-3.07,2.75,2.75,0,0,0-.07-.59l-.11-.61,13.66-7.79.46.4a3.61,3.61,0,0,0,1,.6l.57.21V30.42l-.57.21a3.28,3.28,0,0,0-2.19,3.07,2.23,2.23,0,0,0,.07.59l.1.61Z"/></g></g></svg>