<svg xmlns="http://www.w3.org/2000/svg" xmlns:xlink="http://www.w3.org/1999/xlink" viewBox="0 0 88.97 84.13"><defs><style>.cls-1{fill:none;stroke:#000;stroke-miterlimit:10;}.cls-2{isolation:isolate;}.cls-3{clip-path:url(#clip-path);}.cls-4{clip-path:url(#clip-path-2);}</style><clipPath id="clip-path"><polygon class="cls-1" points="68.65 52.46 1.49 43.77 20.32 32.43 87.49 41.12 68.65 52.46"/></clipPath><clipPath id="clip-path-2"><polygon class="cls-1" points="35.54 12.23 54.38 0.89 54.25 71.9 35.41 83.25 35.54 12.23"/></clipPath></defs><title>6</title><g id="图层_2" data-name="图层 2"><g id="图层_1-2" data-name="图层 1"><g class="cls-2"><g class="cls-2"><g class="cls-3"><polygon class="cls-1" points="68.65 52.46 1.49 43.77 20.32 32.43 87.49 41.12 68.65 52.46"/></g><polygon class="cls-1" points="68.65 52.46 1.49 43.77 20.32 32.43 87.49 41.12 68.65 52.46"/></g></g><g class="cls-2"><g class="cls-2"><g class="cls-4"><polygon class="cls-1" points="35.54 12.23 54.38 0.89 54.25 71.9 35.41 83.25 35.54 12.23"/></g><polygon class="cls-1" points="35.54 12.23 54.38 0.89 54.25 71.9 35.41 83.25 35.54 12.23"/></g></g></g></g></svg>