<?xml version="1.0" encoding="utf-8"?>
<!-- Generator: Adobe Illustrator 23.0.0, SVG Export Plug-In . SVG Version: 6.00 Build 0)  -->
<svg version="1.1" id="图层_1" xmlns="http://www.w3.org/2000/svg" xmlns:xlink="http://www.w3.org/1999/xlink" x="0px" y="0px"
	 viewBox="0 0 200 200" style="enable-background:new 0 0 200 200;" xml:space="preserve">
<title>资源 1</title>
<g>
	<g id="Capa_1">
		<path d="M194.1,74l0.1-0.1c-12.8-9.2-81.1-58.2-93.5-73.6c-0.4-0.4-1-0.4-1.4,0c0,0,0,0,0,0C86.8,15.9,18.5,64.8,5.8,73.9l0,0
			l-2,1.5c-0.2,0.1-0.3,0.4-0.3,0.6v123.1c0,0.5,0.4,0.9,0.8,0.9c0,0,0,0,0,0h13.5c0.2,0,0.5-0.1,0.7-0.1l40.7-20.4h81v19.7
			c0,0.5,0.4,0.9,0.8,0.9c0,0,0,0,0,0h13.5c0.2,0,0.5-0.1,0.7-0.1l40.9-20.4c0.3-0.1,0.5-0.5,0.5-0.8V76c0-0.2-0.1-0.5-0.3-0.6
			L194.1,74z M13.4,70.5C33.8,55.9,82.9,20,98.1,4.1l1.9-1.9l1.8,1.9c15.3,15.9,64.4,51.7,84.8,66.4l6.5,4.7H6.9L13.4,70.5z
			 M17,198.3H5v-95.8l3.4,1.3c0.8,0.3,1.7,0.5,2.6,0.5h6L17,198.3z M11,102.5c-3.3,0-6-2.7-6-6v-6h25.7v6c0,3.3-2.7,6-6,6H11z
			 M58,178.1l-39.3,19.7v-49.3L58.1,132L58,178.1z M58,130.2l-39.3,16.4v-42.3h6c1.9,0,3.7-0.7,5.1-2l1.7-1.6l1.8,1.6
			c1.4,1.3,3.2,2,5.1,2h13.6c0.9,0,1.7-0.2,2.5-0.5l3.5-1.3L58,130.2z M58,96.5c0,3.3-2.7,6-6,6H38.4c-3.3,0-6-2.7-6-6v-6h25.7
			L58,96.5z M71.8,177.8h-12v-75.3l3.5,1.3c0.8,0.3,1.7,0.5,2.6,0.5h6L71.8,177.8z M59.8,96.5v-6h25.7v6c0,3.3-2.7,6-6,6H65.8
			C62.5,102.5,59.8,99.8,59.8,96.5L59.8,96.5z M140.1,177.8H73.5v-12h13.7v-1.7H73.5v-35.9h66.7L140.1,177.8z M140.1,126.5H73.5
			v-22.2h6c1.9,0,3.7-0.7,5.1-2l1.7-1.6l1.7,1.6c1.4,1.3,3.2,2,5.1,2h13.7c1.9,0,3.7-0.7,5.1-2l1.7-1.6l1.7,1.6c1.4,1.3,3.2,2,5.1,2
			h13.7c0.9,0,1.7-0.2,2.5-0.5l3.5-1.3L140.1,126.5z M87.2,96.5v-6h25.7v6c0,3.3-2.7,6-6,6H93.2C89.9,102.5,87.2,99.8,87.2,96.5
			L87.2,96.5z M140.1,96.5c0,3.3-2.7,6-6,6h-13.6c-3.3,0-6-2.7-6-6v-6h25.6L140.1,96.5z M153.8,198.3h-12v-95.8l3.4,1.3
			c0.8,0.3,1.7,0.5,2.6,0.5h6L153.8,198.3z M147.8,102.5c-3.3,0-6-2.7-6-6v-6h25.6v6c0,3.3-2.7,6-6,6H147.8z M155.5,126.5v-22.2h6
			c1.9,0,3.7-0.7,5.1-2l1.7-1.6l1.7,1.6c1.4,1.3,3.2,2,5.1,2h6v22.2L155.5,126.5z M181.2,128.2v8.9l-25.6,12.8v-21.7H181.2z
			 M194.9,178.1l-39.3,19.7v-46l39.3-19.7L194.9,178.1z M194.9,130.2l-12,6v-32h6c0.9,0,1.7-0.2,2.5-0.5l3.4-1.3L194.9,130.2z
			 M194.9,96.5c0,3.3-2.7,6-6,6h-13.6c-3.3,0-6-2.7-6-6v-6h25.6L194.9,96.5z M194.9,88.8H5.1v-12h189.8L194.9,88.8z"/>
	</g>
</g>
</svg>
