<?xml version="1.0" encoding="utf-8"?>
<!-- Generator: Adobe Illustrator 23.0.0, SVG Export Plug-In . SVG Version: 6.00 Build 0)  -->
<svg version="1.1" id="图层_1" xmlns="http://www.w3.org/2000/svg" xmlns:xlink="http://www.w3.org/1999/xlink" x="0px" y="0px"
	 viewBox="0 0 200 200" style="enable-background:new 0 0 200 200;" xml:space="preserve">
<title>资源 2</title>
<g>
	<g id="Capa_1">
		<path d="M83.1,189.4L83.1,189.4c-22.1-1.9-42.4-7.6-57.3-16.2c-15.5-8.9-24-20.2-24-31.9c0-5.8,2-11.4,6-16.8
			c0.3-0.4,0.2-1-0.2-1.3C7.5,123,7.3,123,7.1,123c-0.3,0-0.6,0.1-0.8,0.4C2.2,129.1,0,135.1,0,141.3c0,12.1,8.5,23.9,24,33
			c15.2,8.9,36.1,15,59,16.9l0,0c0.5,0,0.9-0.4,1-0.9C84.1,189.9,83.7,189.4,83.1,189.4C83.2,189.4,83.2,189.4,83.1,189.4z"/>
		<path d="M101,190.1h-0.2c-0.2,0-0.5,0.1-0.7,0.3c-0.2,0.2-0.3,0.4-0.3,0.7c0,0.5,0.4,0.9,0.9,0.9h0.2c0.5,0,0.9-0.4,0.9-0.9
			S101.5,190.1,101,190.1L101,190.1z"/>
		<path d="M195.1,125.6l-2.9-4.6l5.4-0.2c0.5,0,0.9-0.4,0.9-0.9c0-0.5-0.4-0.9-0.9-0.9l-7.9-0.2c-0.5,0-0.9,0.4-0.9,0.9l0.1,8.3
			c0,0.5,0.5,0.9,1,0.9c0.3,0,1.1-0.3,1.1-1c0-0.5-0.3-6.1-0.3-6.1l4.4,7.6c1.9,3.7,3,7.8,3,11.9c0,11.7-8.5,23-24,31.9
			c-14.9,8.5-35.2,14.3-57.3,16.2c-0.5,0-0.9,0.5-0.9,1c0,0.5,0.5,0.9,1,0.9c23-2,43.9-8,59-16.9c15.5-9.1,24-20.9,24-33
			C199.9,135.7,198.2,130.2,195.1,125.6z"/>
		<path d="M100,40.9c-0.5,0-0.9,0.4-0.9,0.9c0,0,0,0,0,0v8.8c0,0.5,0.4,0.9,0.9,0.9s0.9-0.4,0.9-0.9v-8.8
			C100.9,41.3,100.5,40.9,100,40.9C100,40.9,100,40.9,100,40.9z"/>
		<path d="M32.3,126.4l67.3,38.8c0.3,0.2,0.6,0.2,0.9,0l67.3-38.8c0.3-0.2,0.5-0.5,0.5-0.8V47.8c0-0.3-0.2-0.6-0.5-0.8L100.5,8.2
			c-0.3-0.2-0.6-0.2-0.9,0L32.3,47.1c-0.3,0.2-0.5,0.5-0.5,0.8v77.7C31.8,125.9,32,126.2,32.3,126.4z M166.4,123.9l-8.4-4.9
			c-0.5-0.2-1-0.1-1.3,0.3c-0.3,0.4-0.1,1,0.3,1.3c0,0,0,0,0,0l8.4,4.9l-64.5,37.2V88.3l11.6,6.7c0.1,0.1,0.3,0.1,0.5,0.1
			c0.3,0,0.6-0.2,0.8-0.5c0.1-0.2,0.2-0.5,0.1-0.7c-0.1-0.2-0.2-0.4-0.4-0.6l-11.6-6.7l64.4-37.3V123.9z M99.1,10.6v9.9
			c0,0.5,0.4,0.9,0.9,0.9s0.9-0.4,0.9-0.9v-9.9l64.5,37.2l-64.5,37.3V71.9c0-0.5-0.4-0.9-0.9-0.9s-0.9,0.4-0.9,0.9v13.2L34.6,47.8
			L99.1,10.6z M33.7,49.5l64.4,37.3l-11.6,6.7c-0.4,0.3-0.6,0.8-0.4,1.3c0.2,0.3,0.5,0.5,0.8,0.5c0.2,0,0.3,0,0.5-0.1l11.6-6.7v74.5
			l-64.5-37.2l8.4-4.9c0.2-0.1,0.4-0.3,0.4-0.6c0.1-0.2,0-0.5-0.1-0.7c-0.1-0.2-0.3-0.4-0.6-0.4c-0.2-0.1-0.5,0-0.7,0.1l-8.5,4.9
			L33.7,49.5z"/>
		<path d="M130.9,105.6l7.6,4.4c0.1,0.1,0.3,0.1,0.5,0.1c0.3,0,0.6-0.2,0.8-0.5c0.1-0.2,0.2-0.5,0.1-0.7c-0.1-0.2-0.2-0.4-0.4-0.6
			l-7.6-4.4c-0.4-0.2-1-0.1-1.3,0.3c-0.1,0.2-0.2,0.5-0.1,0.7C130.6,105.4,130.7,105.5,130.9,105.6z"/>
		<path d="M61.5,110.1l7.6-4.4c0.2-0.1,0.4-0.3,0.4-0.6c0.1-0.2,0-0.5-0.1-0.7l0,0c-0.2-0.3-0.5-0.5-0.8-0.5c-0.2,0-0.3,0-0.5,0.1
			l-7.6,4.4c-0.2,0.1-0.4,0.3-0.4,0.6c-0.1,0.2,0,0.5,0.1,0.7C60.4,110.1,61,110.3,61.5,110.1z"/>
	</g>
</g>
</svg>
