<?xml version="1.0" encoding="utf-8"?>
<!-- Generator: Adobe Illustrator 23.0.0, SVG Export Plug-In . SVG Version: 6.00 Build 0)  -->
<svg version="1.1" id="图层_1" xmlns="http://www.w3.org/2000/svg" xmlns:xlink="http://www.w3.org/1999/xlink" x="0px" y="0px"
	 viewBox="0 0 200 200" style="enable-background:new 0 0 200 200;" xml:space="preserve">
<title>资源 3</title>
<g>
	<g id="Capa_1">
		<path d="M179.7,132.5l-1.7-0.4V67.9l1.7-0.4c6.2-1.7,9.9-8.2,8.2-14.4c-1.4-5-6-8.6-11.2-8.6c-3.2,0-6.3,1.3-8.5,3.7l-1.3,1.3
			L133,30.1c-0.3-0.2-0.8-0.1-1,0.3c0,0,0,0,0,0c-0.2,0.4-0.1,0.8,0.3,1l33.9,19.4l-0.6,1.8c-0.8,2.4-0.8,5,0,7.4l0.6,1.8
			l-56.5,32.6l-1.2-1.5c-4.1-5-11.5-5.7-16.5-1.6c-0.4,0.3-0.8,0.7-1.1,1l-1.2,1.3l-16.4-9.4c-0.3-0.2-0.8-0.1-1,0.2c0,0,0,0,0,0
			c-0.1,0.2-0.1,0.4-0.1,0.6c0,0.2,0.2,0.3,0.3,0.4l16.4,9.4l-0.6,1.8c-0.4,1.2-0.6,2.4-0.6,3.6c0,5.5,3.8,10.2,9.2,11.4l1.8,0.4
			v64.3l-1.8,0.4c-2.5,0.6-4.8,1.9-6.5,3.9l-1.3,1.5l-55.8-32.2l0.8-1.9c0.6-1.4,0.8-2.9,0.8-4.4c0-5.5-3.8-10.2-9.2-11.4L24,132V68
			l1.8-0.4c2.3-0.5,4.4-1.7,6-3.4l1.3-1.3l28.6,16.4c0.4,0.2,0.8,0.1,1-0.3c0.2-0.3,0.1-0.8-0.3-1c0,0,0,0,0,0L33.8,61.7l0.6-1.8
			c0.8-2.4,0.8-4.9,0.1-7.3l-0.6-1.8l56.7-32.7l1.3,1.4c4.3,4.8,11.7,5.2,16.5,0.9c0.2-0.2,0.3-0.3,0.5-0.5l1.3-1.3l12.6,7.2
			c0.4,0.2,0.8,0.1,1-0.3c0.2-0.3,0.1-0.8-0.3-1c0,0,0,0,0,0l-12.4-7.1l0.7-1.8c0.5-1.3,0.7-2.6,0.7-3.9c0.2-6.5-4.9-11.9-11.4-12.1
			C94.4-0.5,89,4.6,88.8,11c0,0.2,0,0.5,0,0.7c0,1.2,0.2,2.3,0.5,3.4l0.5,1.7L33.2,49.6l-1.3-1.4c-4.4-4.8-11.8-5.1-16.5-0.7
			s-5.1,11.8-0.7,16.5c1.6,1.8,3.8,3,6.1,3.5l1.8,0.4v64l-1.8,0.4c-6.3,1.4-10.3,7.6-8.9,13.9c1.2,5.4,6,9.2,11.5,9.2
			c3,0,5.8-1.1,8-3.2l1.3-1.2l56,32.4l-0.4,1.7c-1.8,6.2,1.9,12.7,8.1,14.5s12.7-1.9,14.5-8.1c0.3-1.1,0.5-2.2,0.4-3.4
			c0-0.8-0.1-1.5-0.2-2.3l-0.3-1.6l57-32.9l1.2,1.1c4.8,4.4,12.2,4,16.5-0.8s4-12.2-0.8-16.5C183.2,133.9,181.5,133,179.7,132.5
			L179.7,132.5z M100.6,1.4c5.7,0,10.3,4.6,10.3,10.3S106.2,22,100.6,22c-5.7,0-10.3-4.6-10.3-10.3c0,0,0,0,0,0
			C90.3,6,94.9,1.4,100.6,1.4z M13,56.2c0-5.7,4.6-10.3,10.3-10.3s10.3,4.6,10.3,10.3S29,66.4,23.3,66.4c0,0,0,0,0,0
			C17.6,66.4,13,61.8,13,56.2z M23.3,154.1c-5.7,0-10.3-4.6-10.3-10.3c0-5.7,4.6-10.3,10.3-10.3c5.7,0,10.3,4.6,10.3,10.3
			C33.6,149.5,29,154.1,23.3,154.1L23.3,154.1z M176.7,45.9c5.7,0,10.3,4.6,10.3,10.3s-4.6,10.3-10.3,10.3
			c-5.7,0-10.3-4.6-10.3-10.3c0,0,0,0,0,0C166.5,50.5,171.1,45.9,176.7,45.9z M89.2,100.3c0-5.7,4.6-10.3,10.3-10.3
			c5.7,0,10.3,4.6,10.3,10.3c0,5.7-4.6,10.3-10.3,10.3c0,0,0,0,0,0C93.8,110.6,89.2,106,89.2,100.3z M99.4,198.6
			c-5.7,0-10.3-4.6-10.3-10.3c0-5.7,4.6-10.3,10.3-10.3s10.3,4.6,10.3,10.3c0,0,0,0,0,0C109.7,194,105.1,198.6,99.4,198.6z
			 M110.1,183l-1.2-1.6c-1.7-2.3-4.1-3.9-6.9-4.5l-1.8-0.4v-64.3l1.8-0.4c5.4-1.2,9.2-6,9.2-11.4c0-1-0.1-2-0.4-3l-0.4-1.7L167,62.9
			l1.3,1.3c1.7,1.8,3.9,3,6.4,3.5l1.9,0.3v64l-1.9,0.3c-6.4,1.2-10.6,7.3-9.4,13.6c0.2,0.8,0.4,1.7,0.7,2.4l0.8,1.9L110.1,183z
			 M176.7,154.1c-5.7,0-10.3-4.6-10.3-10.3c0-5.7,4.6-10.3,10.3-10.3c5.7,0,10.3,4.6,10.3,10.3c0,0,0,0,0,0
			C187,149.5,182.4,154.1,176.7,154.1L176.7,154.1z"/>
	</g>
</g>
</svg>
