<?xml version="1.0" encoding="utf-8"?>
<!-- Generator: Adobe Illustrator 23.0.0, SVG Export Plug-In . SVG Version: 6.00 Build 0)  -->
<svg version="1.1" id="图层_1" xmlns="http://www.w3.org/2000/svg" xmlns:xlink="http://www.w3.org/1999/xlink" x="0px" y="0px"
	 viewBox="0 0 80 71" style="enable-background:new 0 0 80 71;" xml:space="preserve">
<style type="text/css">
	.st0{fill:none;stroke:#000000;stroke-width:2;stroke-miterlimit:10;}
</style>
<g>
	<g>
		<path class="st0" d="M51.4,35.5c0-9.2,7.4-16.6,16.6-16.6c0.2,0,0.3,0,0.5,0V2.7H3v65.5h65.5V52.1c-0.2,0-0.3,0-0.5,0
			C58.8,52.1,51.4,44.7,51.4,35.5z M65.9,68"/>
	</g>
	<g>
		<path class="st0" d="M12,52.1c-0.2,0-0.3,0-0.5,0v16.2H77V2.7H11.5v16.2c0.2,0,0.3,0,0.5,0c9.2,0,16.6,7.4,16.6,16.6
			S21.2,52.1,12,52.1z M14.1,68"/>
	</g>
</g>
</svg>
