<svg xmlns="http://www.w3.org/2000/svg" viewBox="0 0 201.2 201.2"><defs><style>.cls-1{fill:none;stroke:#000;stroke-miterlimit:10;stroke-width:1.2px;}</style></defs><title>资源 1</title><g id="图层_2" data-name="图层 2"><g id="Capa_1" data-name="Capa 1"><path class="cls-1" d="M104.14,148.88l6.54-89.64H90.57l7.68,89.64Z"/><path class="cls-1" d="M73,169.57h55.17V159.22a3.45,3.45,0,0,0-3.44-3.45H76.46A3.46,3.46,0,0,0,73,159.22Z"/><path class="cls-1" d="M117.6,59.24l-6.55,89.64h3.49l13.1-89.64Z"/><path class="cls-1" d="M73.56,59.24l13.09,89.64h4.68L83.64,59.24Z"/><path class="cls-1" d="M85.66,37c2.12,3.73-4.25,16.42-.59,18.57s11.13-9.79,15.53-9.79,12,11.89,15.52,9.8-2.7-14.85-.58-18.57,16.09-4.3,16.09-8.77-14-5.15-16.09-8.77S119.78,3,116.12.85s-11.12,9.8-15.52,9.8S88.63-1.24,85.07.85s2.71,14.84.59,18.57-16.1,4.3-16.1,8.77S83.61,33.34,85.66,37ZM100.6,21.29a6.9,6.9,0,1,1-6.9,6.9A6.9,6.9,0,0,1,100.6,21.29Z"/><path class="cls-1" d="M39.32,141.72,36,132.28a17.25,17.25,0,0,0-7.46,20.5l4.28,12.29c.45.11.89.25,1.33.39A24,24,0,0,1,40,144.69,17.33,17.33,0,0,0,39.32,141.72Z"/><path class="cls-1" d="M35.06,122.25l.57-10a17.26,17.26,0,0,0-14.74,16.08l-.75,13c.38.27.73.57,1.08.87a24.48,24.48,0,0,1,1.89-5.62,24,24,0,0,1,11.48-11.35A18,18,0,0,0,35.06,122.25Z"/><path class="cls-1" d="M25.29,88.79c.07.46.1.92.14,1.38a24.26,24.26,0,0,1,5.3-2.63,24,24,0,0,1,16.13.09,16.49,16.49,0,0,0,2.46-1.8l7.47-6.65A17.26,17.26,0,0,0,35,80.13Z"/><path class="cls-1" d="M12,137.43c.47.13.93.29,1.39.44l.58-9.93a17.1,17.1,0,0,0-4.35-12.45c-.33-.37-.7-.69-1.06-1a23.18,23.18,0,0,1-1.87-1.54,17,17,0,0,0-5.53-2.63l-.57,10A17.21,17.21,0,0,0,12,137.43Z"/><path class="cls-1" d="M25.32,164.42l-3.27-9.37a17.29,17.29,0,0,0-10-10.36,22.6,22.6,0,0,1-2.76-.83,17,17,0,0,0-5.88-.22l3.3,9.44a17.21,17.21,0,0,0,16.81,11.5C24.14,164.5,24.73,164.46,25.32,164.42Z"/><path class="cls-1" d="M28,171.27a16.49,16.49,0,0,0-1.86,0c-.43.06-.87.08-1.3.11a17.24,17.24,0,0,0-6.5,2.17L25,181a17.29,17.29,0,0,0,21.54,3.43L39.86,177A17.13,17.13,0,0,0,28,171.27Z"/><path class="cls-1" d="M33,94.05a17.13,17.13,0,0,0-9.85,8.79l-5.66,11.72c.24.41.45.83.67,1.24A24.18,24.18,0,0,1,37,105.22a18.07,18.07,0,0,0,1.59-2.6l4.34-9A17.15,17.15,0,0,0,33,94.05Z"/><path class="cls-1" d="M12.62,108.78l4.32-9a17.16,17.16,0,0,0,.27-14.37A23.56,23.56,0,0,1,15.89,83a17.32,17.32,0,0,0-4-4.36l-4.35,9a17.24,17.24,0,0,0,4,20.2C11.87,108.13,12.24,108.46,12.62,108.78Z"/><path class="cls-1" d="M23,81.59,30.41,75a17.24,17.24,0,0,0,3.43-21.54L26.38,60.1a17.16,17.16,0,0,0-4.3,19.77C22.41,80.42,22.71,81,23,81.59Z"/><path class="cls-1" d="M51.66,179.88a17.26,17.26,0,0,0-.95-21.79l-6.66-7.46a17.26,17.26,0,0,0,1,21.79Z"/><path class="cls-1" d="M180,142.23c.36-.3.71-.6,1.08-.88l-.74-13a17.27,17.27,0,0,0-14.74-16.07l.57,10a18.7,18.7,0,0,0,.48,3,23.94,23.94,0,0,1,11.47,11.35A23.52,23.52,0,0,1,180,142.23Z"/><path class="cls-1" d="M183.71,114.57l-5.66-11.73,0,0a17.26,17.26,0,0,0-19.75-9.19l4.35,9a16.35,16.35,0,0,0,1.59,2.59,24.14,24.14,0,0,1,18.83,10.58C183.26,115.38,183.47,115,183.71,114.57Z"/><path class="cls-1" d="M192.6,114.47a14.55,14.55,0,0,0-1.06,1A17.13,17.13,0,0,0,187.19,128l.57,9.93c.46-.16.91-.31,1.38-.44a17.21,17.21,0,0,0,11.43-17.16l-.57-10a17,17,0,0,0-5.53,2.63A23.29,23.29,0,0,1,192.6,114.47Z"/><path class="cls-1" d="M168.35,165.07l4.28-12.29a17.23,17.23,0,0,0-7.46-20.49l-3.29,9.44a17.86,17.86,0,0,0-.72,3,24,24,0,0,1,6.26,14.87,24.19,24.19,0,0,1-.41,5.9C167.46,165.32,167.9,165.18,168.35,165.07Z"/><path class="cls-1" d="M184.26,99.84l3.74,7.75.58,1.2c.38-.33.75-.66,1.15-1a17.22,17.22,0,0,0,4-20.19l-4.35-9a17.14,17.14,0,0,0-4,4.36A24.83,24.83,0,0,1,184,85.48a17.17,17.17,0,0,0,.27,14.34A0,0,0,0,1,184.26,99.84Z"/><path class="cls-1" d="M154.34,87.63a24,24,0,0,1,16.13-.09,24.36,24.36,0,0,1,5.31,2.64c0-.46.07-.92.14-1.38l-9.72-8.67a17.26,17.26,0,0,0-21.79-.95l7.46,6.65A16.58,16.58,0,0,0,154.34,87.63Z"/><path class="cls-1" d="M150.49,158.09a17.23,17.23,0,0,0-1,21.79l6.66-7.46a17.24,17.24,0,0,0,.94-21.79Z"/><path class="cls-1" d="M175.15,171.3a15.38,15.38,0,0,0-1.92,0A17.13,17.13,0,0,0,161.34,177l-6.65,7.46A17.27,17.27,0,0,0,176.23,181l6.66-7.47a17.12,17.12,0,0,0-6.56-2.17C175.93,171.37,175.54,171.35,175.15,171.3Z"/><path class="cls-1" d="M191.55,144a22.29,22.29,0,0,1-2.36.72,17.22,17.22,0,0,0-10,10.38l-3.27,9.37c.59,0,1.17.08,1.76.16a17.21,17.21,0,0,0,16.8-11.5l3.29-9.44A17.08,17.08,0,0,0,191.55,144Z"/><path class="cls-1" d="M178.21,81.59c.26-.53.53-1.06.83-1.57a17,17,0,0,0,1.51-8,17.16,17.16,0,0,0-5.73-11.89l-7.47-6.65A17.28,17.28,0,0,0,170.78,75Z"/><path class="cls-1" d="M51,188.6a108.38,108.38,0,0,0,99.14,0"/></g></g></svg>