<svg xmlns="http://www.w3.org/2000/svg" viewBox="0 0 200 200"><title>资源 3</title><g id="图层_2" data-name="图层 2"><g id="Capa_1" data-name="Capa 1"><path d="M187,40.37a18.79,18.79,0,0,0-2.32.15l-.68.08-.66-.19-.12,0-46.44-3.93L126,33.53l-.18,0h-5.31l-8.4-6.7,1.07-2.38a18.35,18.35,0,0,0,1.61-7.6C114.81,7.55,108.17,0,100,0S85.19,7.55,85.19,16.83a18.25,18.25,0,0,0,1.71,7.81l1,2.13-6.74,6.74H69.72c-6.16,0-16,2.93-20.41,4.48l-3,1.28-.53-1.12-29,2.23-.13,0L16,40.6l-.68-.08A18.31,18.31,0,0,0,13,40.37c-7.28,0-13,3.85-13,8.76s5.71,8.75,13,8.75a17.73,17.73,0,0,0,7.21-1.46l2.56-1.16,1.59,2.32a.62.62,0,0,0,.46.29l19.38,2.88L63,70.75V117a.69.69,0,0,0,.39.61L67,119.33v47H59.63A.68.68,0,0,0,59,167v15.47H47.51a.69.69,0,0,0-.68.68v16.15a.68.68,0,0,0,.68.68h105a.68.68,0,0,0,.68-.68V183.17a.69.69,0,0,0-.68-.68H141.05V167a.68.68,0,0,0-.68-.68H133V152.76h3.36a.68.68,0,0,0,.36-.1.68.68,0,0,0,.32-.58V115.34a.67.67,0,0,0-.36-.59l-3.68-2V73.16l23.09-12.5,19.12-2.79a.66.66,0,0,0,.47-.29l1.58-2.3,2.56,1.14A17.62,17.62,0,0,0,187,57.88c7.28,0,13-3.84,13-8.75S194.29,40.37,187,40.37ZM86.55,16.83c0-8.53,6-15.47,13.45-15.47s13.45,6.94,13.45,15.47S107.42,32.3,100,32.3,86.55,25.36,86.55,16.83ZM19.18,55.37A16.51,16.51,0,0,1,13,56.52c-6.41,0-11.63-3.31-11.63-7.39s5.22-7.4,11.63-7.4c.55,0,1.1,0,1.69.08l1.86.18,6,12ZM63,69.21,44.6,59.43a.57.57,0,0,0-.22-.07l-19-2.78L17.89,41.65l31.3-2.41L63,53Zm88.83,114.64v14.79H48.19V183.85ZM139.7,167.7v14.79H60.3V167.7Zm-71.32-1.36V120l14.79,7.15v39.2Zm16.15,0V127.8L99.32,135v31.39Zm16.15,0V135.6l14.79,7.15v23.59Zm16.15,0V143.41l14.79,7.15v15.78Zm18.83-50.59V151L64.34,116.53V54.36L75.3,65a.72.72,0,0,0,1,0,.68.68,0,0,0,0-1L50.6,38.82l5.61-1.56A69.42,69.42,0,0,1,67.46,35L69,34.84l18.4,18a.68.68,0,0,0,.48.18.66.66,0,0,0,.48-.19.68.68,0,0,0,0-1L71,34.87H81.43a.74.74,0,0,0,.48-.2L88.56,28l2.37,2.1A13.56,13.56,0,0,0,100,33.66a13.8,13.8,0,0,0,9.29-3.74l2.12-2L119,34.05,104.59,98.24a.66.66,0,0,0,.34.74Zm39-59.17-19,2.78a.62.62,0,0,0-.23.07L133,71.61V62.45a.68.68,0,0,0-1.36,0V112L106,98l14.22-63.17,5.61,0,10.71,2.9a.61.61,0,0,0,.13,0l45.43,3.82ZM187,56.52a16.43,16.43,0,0,1-6.19-1.15L177.45,54l6-12,1.86-.17c.62-.06,1.16-.09,1.69-.09,6.41,0,11.63,3.32,11.63,7.4S193.42,56.52,187,56.52Z"/><path d="M95.36,112.87h0l-14.87-7.24V90.71a.68.68,0,0,0-1.36,0v15.35a.68.68,0,0,0,.39.6l15.24,7.43a.7.7,0,0,0,.91-.32.67.67,0,0,0,0-.52A.64.64,0,0,0,95.36,112.87Z"/></g></g></svg>