<svg xmlns="http://www.w3.org/2000/svg" viewBox="0 0 200.01 200"><title>资源 2</title><g id="图层_2" data-name="图层 2"><g id="Capa_1" data-name="Capa 1"><path d="M134.5,109.41a.64.64,0,0,0-.89,0l-11.47,11.48-8.32-8.33,12.3-12.3a.64.64,0,0,0,.19-.44.61.61,0,0,0-.19-.44L113.81,87.07l8-8,11.47,11.48a.65.65,0,0,0,.88,0l65.33-65.33a.62.62,0,0,0,0-.89L175.63.54a.61.61,0,0,0-.88,0L109.42,65.87a.61.61,0,0,0-.18.44.62.62,0,0,0,.18.44L120.9,78.22l-8,8L100.62,73.88a.65.65,0,0,0-.88,0L87.44,86.19l-8.33-8.33L90.59,66.39a.63.63,0,0,0,0-.88L25.25.17a.65.65,0,0,0-.88,0L.54,24a.64.64,0,0,0,0,.89L65.88,90.22a.65.65,0,0,0,.88,0L78.23,78.74l8.33,8.33L74.25,99.38a.61.61,0,0,0-.19.44.64.64,0,0,0,.19.44l12.3,12.3-8.68,8.69L66.39,109.78a.61.61,0,0,0-.44-.19.67.67,0,0,0-.44.18L.18,175.11a.63.63,0,0,0-.18.44.67.67,0,0,0,.18.44L24,199.82a.62.62,0,0,0,.44.18.59.59,0,0,0,.44-.18l65.34-65.33a.67.67,0,0,0,.18-.44.64.64,0,0,0-.19-.45L78.75,122.13l8.69-8.69,12.3,12.31a.64.64,0,0,0,.89,0l12.3-12.31,8.33,8.33-11.48,11.47a.67.67,0,0,0-.18.44.63.63,0,0,0,.18.44l65.33,65.34a.64.64,0,0,0,.89,0l23.83-23.83a.67.67,0,0,0,.18-.44.64.64,0,0,0-.19-.45Zm-.81-20.15-11-11,12-12,11,11Zm12.9-12.9-11-11L147.85,53l11,11Zm13.18-13.18-11-11L161,39.85l11,11ZM173,50l-11-11,12.3-12.3,11,11Zm25.19-25.19-12,12-11-11,12-12ZM175.19,1.86l11,11-12,12-11-11Zm-12.9,12.9,11,11L161,38.09l-11-11ZM149.12,27.94l11,11-12.3,12.29-11-11ZM135.94,41.11l11,11L134.68,64.44l-11-11Zm-25.2,25.2,12-12,11,11-12,12ZM76.36,53.05l-11,11L53,51.78l11-11ZM63.19,39.87l-11,11L39.86,38.61l11-11ZM50,26.69l-11,11-12.3-12.3,11-11ZM24.81,1.5l12,12-11,11-12-12Zm-22.94,23,11-11,12,12-11,11Zm12.9,12.9,11-11,12.29,12.3-11,11ZM27.94,50.52l11-11L51.27,51.78l-11,11ZM41.12,63.7l11-11L64.45,65l-11,11Zm25.2,25.2-12-12,11-11,12,12ZM66.21,65l11-11,12,12-11,11ZM66,111.1l11,11-12,12-11-11ZM53.05,124l11,11-12.3,12.3-11-11ZM39.88,137.18l11,11L38.61,160.5l-11-11ZM26.7,150.35l11,11-12.29,12.3-11-11ZM1.5,175.55l12-12,11,11-12,12Zm23,22.95-11-11,12-12,11,11Zm12.9-12.9-11-11,12.29-12.29,11,11Zm13.18-13.18-11-11,12.29-12.29,11,11Zm13.18-13.18-11-11L65,135.91l11,11ZM88.9,134.05l-12,12-11-11,12-12Zm11.28-9.62L75.57,99.82,100.18,75.2,124.8,99.82Zm85.42,37.86-11,11L162.27,161l11-11Zm-13.17-13.18-11,11L149.1,147.85l11-11Zm-13.18-13.18-11,11-12.3-12.3,11-11Zm-25.2-25.19,12,12-11,11-12-12Zm-22.94,23,11-11,12,12-11,11Zm12.9,12.9,11-11,12.29,12.3-11,11Zm13.17,13.17,11-11L160.51,161l-11,11Zm13.18,13.18,11-11,12.3,12.29-11,11Zm25.2,25.19-12-12,11-11,12,12Zm11.91-11.91-12-12,11-11,12,12Z"/><path d="M106.56,93.44a9,9,0,1,0,0,12.75A9,9,0,0,0,106.56,93.44Zm-1.26,11.49a7.24,7.24,0,1,1,0-10.23A7.18,7.18,0,0,1,105.3,104.93Z"/></g></g></svg>