<svg xmlns="http://www.w3.org/2000/svg" viewBox="0 0 88 59.29">
    <defs>
        <style>.cls-1{fill:none;stroke:#000;stroke-miterlimit:10;}</style>
    </defs>
    <title>资源 9</title>
    <g id="图层_2">
        <g id="Capa_1">
            <path class="cls-1"
                  d="M79.63,10.81C68-8.29,50.5,5,50.5,5a9,9,0,0,1-4.65,1.56H42.16A9.07,9.07,0,0,1,37.51,5S20-8.28,8.37,10.81,1.43,50.69,1.43,50.69c.82,5.09,3.53,8.49,8.63,8.06S26.2,45,26.2,45a6.29,6.29,0,0,1,4.24-2H57.56a6.26,6.26,0,0,1,4.24,2s11,13.28,16.14,13.71,7.81-3,8.63-8.06C86.56,50.69,91.26,29.9,79.63,10.81ZM33.93,26.35h-6v5.81a5.6,5.6,0,0,1-3.26,1,3.92,3.92,0,0,1-2.86-1.06v-5.7h-5.7a4.58,4.58,0,0,1-.9-2.64A6.12,6.12,0,0,1,16,20.24h6v-6a6.51,6.51,0,0,1,3-.62,8.06,8.06,0,0,1,3.1.73l0,5.92h5.7a5.64,5.64,0,0,1,1.07,2.82A7,7,0,0,1,33.93,26.35ZM60.59,33a4.77,4.77,0,1,1,4.77-4.77A4.76,4.76,0,0,1,60.59,33Zm0-13.12a4.78,4.78,0,1,1,4.77-4.78A4.77,4.77,0,0,1,60.59,19.85Zm11.88,7a4.77,4.77,0,1,1,4.78-4.77A4.76,4.76,0,0,1,72.47,26.89Z"/>
        </g>
    </g>
</svg>
