<svg xmlns="http://www.w3.org/2000/svg" viewBox="0 0 62.5 82">
    <defs>
        <style>.cls-1{fill:#000;}</style>
    </defs>
    <title>资源 2</title>
    <g id="图层_2">
        <g id="Capa_1">
            <path class="cls-1"
                  d="M59.61,19.85a4.91,4.91,0,0,0-6.23,2.49v0L46.59,35.6l6-29.85A4.77,4.77,0,0,0,48.72,0a4.94,4.94,0,0,0-5.48,3.9h0l-2.57,11.3-4.23,19.6L36,6.05a4.77,4.77,0,0,0-4.76-4.69h-.07a4.76,4.76,0,0,0-4.69,4.83v28l-3.65-7.68A4.77,4.77,0,0,0,17.2,24l-7.51,2.2a3.5,3.5,0,0,0-1.78,1.3l-3.64,5.2a4.43,4.43,0,0,0-.67,3.81s0,.08,0,.13l.25.91L3,37.68A3.35,3.35,0,0,0,0,41v10.8a3.4,3.4,0,0,0,1,2.4L14.57,67a5.15,5.15,0,0,1,1.2,1.84,8.41,8.41,0,0,0,.83,1.57l.13.21v8A3.37,3.37,0,0,0,20.1,82H42.41a3.37,3.37,0,0,0,3.36-3.36V70.73l.17-.22a14.57,14.57,0,0,0,2.47-5.16A64,64,0,0,0,50,55.81v0c.17-1.49.37-3.17.63-4.84a26.72,26.72,0,0,1,2.75-8.2L62,26.3a4.76,4.76,0,0,0-2.42-6.45ZM61,25.76v0L52.39,42.22a28.06,28.06,0,0,0-2.86,8.56c-.25,1.66-.46,3.36-.64,4.86A63.44,63.44,0,0,1,47.31,65v0c-1.34,4.87-4,7.45-7.68,7.45a.58.58,0,0,0-.58.58.57.57,0,0,0,.58.57,7.79,7.79,0,0,0,3.78-1L44.62,72v6.65a2.21,2.21,0,0,1-2.21,2.21H20.1a2.22,2.22,0,0,1-2.22-2.21V72.12l1.2.62a8,8,0,0,0,3.79.89.57.57,0,0,0,.59-.57.58.58,0,0,0-.55-.58,6,6,0,0,1-6.09-4.1,6.38,6.38,0,0,0-1.49-2.24L1.79,53.35a2.22,2.22,0,0,1-.64-1.57V41a2.21,2.21,0,0,1,2.16-2.21,6.38,6.38,0,0,1,6.45,6.39v1.4a3.41,3.41,0,0,0,1.35,2.69l2,1.49a6.89,6.89,0,0,0,2.72,1.17h.11a7,7,0,0,0,4.42-.67.57.57,0,0,0,.33-.49.56.56,0,0,0-.26-.51.58.58,0,0,0-.57,0,7.18,7.18,0,0,1-.87.35l-2.22.69L20,46.45a3.26,3.26,0,0,0,.39-2.53L18.3,35.64a2.85,2.85,0,0,0-2.78-2.2h0a2.82,2.82,0,0,0-2.05.88l-3.22,3.33a3.3,3.3,0,0,1-5-4.28l3.65-5.2A2.28,2.28,0,0,1,10,27.32l7.49-2.2A3.59,3.59,0,0,1,21.81,27L26,35.93a.85.85,0,0,0,1.62-.37V6.18a3.61,3.61,0,0,1,7.22-.11l.46,30.81a.92.92,0,0,0,1.82.2L41.79,15.5,44.36,4.22a3.76,3.76,0,0,1,4.12-3h0a3.6,3.6,0,0,1,2.42,1.53,3.65,3.65,0,0,1,.53,2.8L45,37.48a.86.86,0,0,0,1.59.58L54.4,22.88a3.81,3.81,0,0,1,4.7-2l0,0a3.62,3.62,0,0,1,2,2.07A3.54,3.54,0,0,1,61,25.76ZM9.37,40.61l-.64-.83,1-.42a4.48,4.48,0,0,0,1.36-.92l3.26-3.37a1.77,1.77,0,0,1,2.86.8v0l2.08,8.29a2.08,2.08,0,0,1-.21,1.58l-.23.42h0l-3.07,4.56-.61-.22a5.32,5.32,0,0,1-1.31-.7l-2-1.51a2.19,2.19,0,0,1-.89-1.76v-1.4A7.51,7.51,0,0,0,9.37,40.61Z"/>
            <path class="cls-1"
                  d="M28.54,46h-.08a.58.58,0,0,0-.45.22.56.56,0,0,0-.08.57.58.58,0,0,0,.45.36c.1,0,9.5,1.41,12.12,6.66a.57.57,0,0,0,.77.25.57.57,0,0,0,.26-.77C38.64,47.51,29,46.06,28.54,46Z"/>
            <path class="cls-1"
                  d="M27.28,51.61h0a.62.62,0,0,0-.23,0,.57.57,0,0,0-.2,1.11h0a10,10,0,0,1,3.37,2.59,13.78,13.78,0,0,1,3.23,9.42.58.58,0,0,0,1.16,0C34.62,54.69,27.58,51.73,27.28,51.61Z"/>
        </g>
    </g>
</svg>
