<svg xmlns="http://www.w3.org/2000/svg" viewBox="0 0 87.5 77.08">
    <defs>
        <style>.cls-1{fill:#000;}</style>
    </defs>
    <title>资源 3</title>
    <g id="图层_2">
        <g id="Capa_1">
            <path class="cls-1"
                  d="M80.64.15a.53.53,0,0,0-.4-.15.57.57,0,0,0-.39.18l-11.09,12h-54v-1A6.65,6.65,0,0,0,8.15,4.56H6.63A6.64,6.64,0,0,0,0,11.19V76.52a.56.56,0,0,0,.56.56H80a.11.11,0,0,0,.11-.11V15l.06-.07,7.17-7.75a.56.56,0,0,0,0-.79ZM13.67,76H1.11V75a5.53,5.53,0,0,1,5.52-5.52H8.15A5.52,5.52,0,0,1,13.67,75Zm0-5-1.54-1.19a6.54,6.54,0,0,0-4-1.36H6.63a6.53,6.53,0,0,0-4,1.36L1.11,70.92V11.19A5.53,5.53,0,0,1,6.63,5.67H8.15a5.52,5.52,0,0,1,5.52,5.52Zm65.33,3a2,2,0,0,1-2,2H14.79V13.27H67.73L58.17,23.6a.58.58,0,0,0-.08.14l0,.08,0,.1-1.8,8.6a.53.53,0,0,0,.12.47.52.52,0,0,0,.45.21l.13,0,8.47-2.46.1-.05a.69.69,0,0,0,.2-.13L79,16.15ZM58.93,25.05l5.24,4.85-6.66,2Zm6.31,4.33-5.87-5.44L76.15,5.8,82,11.24ZM82.78,10.43,76.91,5l3.37-3.65,5.88,5.44Z"/>
            <path class="cls-1"
                  d="M54.29,40.06a.56.56,0,0,0-.17-.4L45,30.55a.57.57,0,0,0-.79,0L35.1,39.66a.59.59,0,0,0-.16.4V57.73H23.35a.56.56,0,0,0,0,1.12H65.89a.56.56,0,0,0,0-1.12H54.29Zm-9.67-8.33,7.77,7.77H36.84Zm8.55,26H36.06V40.61H53.17Z"/>
        </g>
    </g>
</svg>
