<svg xmlns="http://www.w3.org/2000/svg" viewBox="0 0 80 80">
    <defs>
        <style>.cls-1{fill:#000;}</style>
    </defs>
    <title>资源 4</title>
    <g id="图层_2">
        <g id="Capa_1">
            <path class="cls-1"
                  d="M76.62,8.14H48.8V.66A.67.67,0,0,0,48.14,0H31.86a.67.67,0,0,0-.66.66V8.14H3.38A3.37,3.37,0,0,0,0,11.51V76.62A3.38,3.38,0,0,0,3.38,80H76.62A3.38,3.38,0,0,0,80,76.62V11.51A3.37,3.37,0,0,0,76.62,8.14Zm-40,28.93V33.88h6.82v3.19L40,41.61ZM32.52,1.33h15v4.1h-15Zm0,21.7h3.41a.67.67,0,0,0,0-1.33H32.52V17.6h3.41a.66.66,0,0,0,0-1.32H32.52V6.75h15v9.53H44.07a.66.66,0,1,0,0,1.32h3.41v4.1H44.07a.67.67,0,0,0,0,1.33h3.41v4.1h-15Zm17,5.42a2.06,2.06,0,0,1,0,4.11h-19a2.06,2.06,0,0,1,0-4.11ZM1.79,78.21a1.6,1.6,0,0,1-.46-1.14v-66a1.6,1.6,0,0,1,.46-1.13h0a1.61,1.61,0,0,1,1.14-.47H31.2V27.13h-.6a3.44,3.44,0,0,0-3.4,2.67,3.38,3.38,0,0,0,3.3,4.08h4.77v3.41a.61.61,0,0,0,.13.39l3,4a2.13,2.13,0,0,0,.6.52l.36.2v5.4L24.72,57.09a.78.78,0,0,0-.16.15.76.76,0,0,0-.12.24.82.82,0,0,0,0,.18V69.84a.65.65,0,0,0,.3.56l13,8.27H2.93a1.6,1.6,0,0,1-1.14-.46Zm37.55-.08-13.6-8.65V58.84l13.6,8.65Zm-13-20.5L40,48.93l13.69,8.7L40,66.34Zm14.35,9.86,13.6-8.65V69.48l-13.6,8.65ZM78.21,9.93a1.6,1.6,0,0,1,.46,1.13v66a1.6,1.6,0,0,1-.46,1.13h0a1.6,1.6,0,0,1-1.13.46H42.28l13-8.27a.65.65,0,0,0,.3-.56V57.63a.21.21,0,0,0,0-.06l0-.11a.45.45,0,0,0-.08-.17.53.53,0,0,0-.17-.17L55.21,57,40.66,47.77V42.38l.36-.2a2,2,0,0,0,.6-.53l3-4a.61.61,0,0,0,.13-.39V33.88H49.4a3.45,3.45,0,0,0,3.4-2.67,3.38,3.38,0,0,0-3.3-4.08h-.7V9.46H77.07a1.61,1.61,0,0,1,1.14.47Z"/>
        </g>
    </g>
</svg>
