<svg xmlns="http://www.w3.org/2000/svg" viewBox="0 0 78.17 80.79">
    <defs>
        <style>
            .cls-1{fill:#000;}.cls-2{fill:#000;stroke:#000;stroke-linecap:round;stroke-miterlimit:10;stroke-width:1.2px;}
        </style>
    </defs>
    <title>资源 5</title>
    <g id="图层_2">
        <g id="Capa_1">
            <path class="cls-1"
                  d="M77.61,0H.55A.55.55,0,0,0,0,.55a.55.55,0,0,0,.55.55H6.79V80.2a.56.56,0,0,0,.29.49.52.52,0,0,0,.55,0l10.23-6.81.06,0,10.2,6.79a.54.54,0,0,0,.61,0L39,73.86l0,0,10.21,6.79a.55.55,0,0,0,.6,0l10.23-6.82.06,0,10.2,6.79a.61.61,0,0,0,.6,0,.56.56,0,0,0,.25-.47l0-79.1h6.49A.56.56,0,0,0,78.17.6.61.61,0,0,0,77.61,0ZM69.92,79.06l-9.55-6.35a.54.54,0,0,0-.61,0L49.53,79.54l-.05,0L39.27,72.71a.53.53,0,0,0-.6,0L28.44,79.52l-.06,0-10.2-6.77a.55.55,0,0,0-.6,0L7.89,79.15V1.08H70.06v.1l0,78Z"/>
            <path class="cls-1"
                  d="M48.76,18.92a.56.56,0,0,0-.17-.4L39.48,9.41a.57.57,0,0,0-.79,0l-9.12,9.12a.55.55,0,0,0-.16.39V30.6h-4.6a.56.56,0,0,0,0,1.11H53.35a.56.56,0,1,0,0-1.11H48.76Zm-9.68-8.33,7.77,7.77H31.31Zm8.56,20H30.52V19.48H47.64Z"/>
            <line class="cls-2" x1="30.59" y1="49.05" x2="53.24" y2="49.05"/>
            <line class="cls-2" x1="24.76" y1="49.05" x2="26.41" y2="49.05"/>
            <line class="cls-2" x1="30.59" y1="56.05" x2="53.24" y2="56.05"/>
            <line class="cls-2" x1="24.76" y1="56.05" x2="26.41" y2="56.05"/>
            <line class="cls-2" x1="30.59" y1="42.05" x2="53.24" y2="42.05"/>
            <line class="cls-2" x1="24.76" y1="42.05" x2="26.41" y2="42.05"/>
        </g>
    </g>
</svg>
