<svg xmlns="http://www.w3.org/2000/svg" viewBox="0 0 83.93 82.5">
    <defs>
        <style>.cls-1{fill:#000;}</style>
    </defs>
    <title>资源 6</title>
    <g id="图层_2">
        <g id="Capa_1">
            <path class="cls-1"
                  d="M80.73,51.81H4.56a.67.67,0,0,0-.61.44.64.64,0,0,0,.21.72,7.54,7.54,0,0,0,.73.53,2.08,2.08,0,0,1,.87,2.34,7.54,7.54,0,0,0,.72,6.05,7.77,7.77,0,0,0,4.91,3.61A2.14,2.14,0,0,1,13,67.42a7.7,7.7,0,0,0,2.24,5c.16.16.34.32.52.48a7.91,7.91,0,0,0,5.89,1.72,2.13,2.13,0,0,1,2.2,1.23A7.79,7.79,0,0,0,28.36,80a7.94,7.94,0,0,0,6.14-.36,2.1,2.1,0,0,1,1-.22A2.16,2.16,0,0,1,37,80.1a8,8,0,0,0,5.63,2.4,7.82,7.82,0,0,0,5.61-2.39,2.23,2.23,0,0,1,2.52-.45,7.94,7.94,0,0,0,6.16.36,7.7,7.7,0,0,0,4.44-4.16A2.19,2.19,0,0,1,63.6,74.6a7.93,7.93,0,0,0,5.89-1.73,7.73,7.73,0,0,0,2.76-5.46,2.14,2.14,0,0,1,1.62-1.91,7.79,7.79,0,0,0,4.94-3.62,7.5,7.5,0,0,0,.72-6,2.11,2.11,0,0,1,.87-2.36,6.48,6.48,0,0,0,.73-.53.64.64,0,0,0,.21-.72A.66.66,0,0,0,80.73,51.81Zm-16.57,1.3-.71,1.14a24.49,24.49,0,0,1-41.6,0l-.72-1.14Zm14.13,3.12a6.26,6.26,0,0,1-.6,5,6.42,6.42,0,0,1-4.11,3A3.43,3.43,0,0,0,71,67.35a6.42,6.42,0,0,1-2.28,4.51,6.68,6.68,0,0,1-3.19,1.41l.23.26-1.93-.23a3.47,3.47,0,0,0-3.59,2A6.32,6.32,0,0,1,56.5,78.8a6.62,6.62,0,0,1-5.11-.28,3.48,3.48,0,0,0-4.06.69,6.56,6.56,0,0,1-4.62,2h-.07a6.57,6.57,0,0,1-4.59-1.9l-.13-.14a3.5,3.5,0,0,0-4-.66,6.6,6.6,0,0,1-5.12.29,6.34,6.34,0,0,1-3.7-3.48,3.45,3.45,0,0,0-3.57-2,6.54,6.54,0,0,1-4.89-1.43,6.37,6.37,0,0,1-2.29-4.5,3.33,3.33,0,0,0-1-2.22,3.48,3.48,0,0,0-1.66-.93,6.37,6.37,0,0,1-4.09-3,6.21,6.21,0,0,1-.59-5A3.46,3.46,0,0,0,7,54.12l-.37-1H19.71l.21.39a26.22,26.22,0,0,0,4.5,6.11,25.83,25.83,0,0,0,41-6.11l.22-.4H78.71l-.37,1A3.41,3.41,0,0,0,78.29,56.23Z"/>
            <path class="cls-1"
                  d="M4.56,30.7H80.72a.65.65,0,0,0,.61-.43.67.67,0,0,0-.2-.73c-.24-.18-.48-.36-.74-.53a2.09,2.09,0,0,1-.87-2.34,7.47,7.47,0,0,0-.71-6A7.76,7.76,0,0,0,73.89,17a2.16,2.16,0,0,1-1.65-1.93,7.68,7.68,0,0,0-2.75-5.45A7.85,7.85,0,0,0,63.6,7.92a2.19,2.19,0,0,1-2.2-1.23,7.73,7.73,0,0,0-4.47-4.2,7.85,7.85,0,0,0-6.14.36,2.12,2.12,0,0,1-2.54-.46A7.79,7.79,0,0,0,37,2.39a2.22,2.22,0,0,1-2.51.46,8,8,0,0,0-6.16-.37,7.75,7.75,0,0,0-4.44,4.17,2.2,2.2,0,0,1-2.22,1.26,7.94,7.94,0,0,0-5.9,1.73,7.69,7.69,0,0,0-2.74,5.45A2.18,2.18,0,0,1,11.41,17a7.8,7.8,0,0,0-4.93,3.62,7.46,7.46,0,0,0-.72,6A2.11,2.11,0,0,1,4.88,29c-.25.17-.49.35-.72.53a.66.66,0,0,0-.21.73A.65.65,0,0,0,4.56,30.7Zm16.57-1.3.71-1.15a24.5,24.5,0,0,1,41.6,0l.71,1.14ZM7,26.28a6.22,6.22,0,0,1,.6-5,6.36,6.36,0,0,1,4.11-3,3.45,3.45,0,0,0,2.63-3.13,6.38,6.38,0,0,1,2.28-4.5,6.48,6.48,0,0,1,3.22-1.42l1.63,0a3.46,3.46,0,0,0,3.62-2,6.35,6.35,0,0,1,3.69-3.46A6.57,6.57,0,0,1,33.89,4,3.49,3.49,0,0,0,38,3.29a6.5,6.5,0,0,1,9.27-.09l.14.13a3.49,3.49,0,0,0,4,.67,6.56,6.56,0,0,1,5.12-.29,6.34,6.34,0,0,1,3.7,3.48,3.43,3.43,0,0,0,3.56,2,6.53,6.53,0,0,1,4.9,1.44,6.34,6.34,0,0,1,2.28,4.49,3.46,3.46,0,0,0,2.65,3.15,6.4,6.4,0,0,1,4.1,3,6.21,6.21,0,0,1,.59,5,3.31,3.31,0,0,0,.06,2.11l.36,1H65.59L65.37,29a25.79,25.79,0,0,0-45.46,0l-.21.39H6.58l.37-1A3.41,3.41,0,0,0,7,26.28Z"/>
            <path class="cls-1"
                  d="M1.38,47.26,3.08,36,6.57,47.24a.58.58,0,0,0,.6.44h.18a.49.49,0,0,0,.6-.43l3.51-11,1.76,11c0,.35.24.48.7.44s.61-.17.61-.54a4,4,0,0,0-.08-.68L12.59,36.11a1.17,1.17,0,0,0-1.19-1.06.92.92,0,0,0-1,.71l-3.12,10-3-10a1,1,0,0,0-1.1-.71c-.39,0-.93.11-1.11,1.07L.15,46.43c0,.15-.14.63-.15.73,0,.25.08.51.64.51S1.34,47.58,1.38,47.26Z"/>
            <path class="cls-1"
                  d="M19.51,35.74V47.13c0,.28.08.54.65.54s.65-.26.65-.54V35.74c0-.61-.33-.69-.65-.69S19.51,35.13,19.51,35.74Z"/>
            <path class="cls-1"
                  d="M26.23,45.74c-.41,0-.58.21-.58.68.22.73,1.45,1.16,3.65,1.25,2.8-.09,4.26-1.33,4.45-3.79,0-1.5-1.24-2.68-3.7-3.49-1.84-.58-2.78-1.34-2.8-2.24.12-1.25.89-1.91,2.31-2a4.16,4.16,0,0,1,2.05.51,1.36,1.36,0,0,0,.67.26c.51,0,.57-.31.57-.54-.22-.73-1.3-1.18-3.2-1.32-2.3.14-3.56,1.17-3.85,3.17,0,1.39,1.19,2.5,3.55,3.27,2,.64,2.93,1.44,2.95,2.45a2.81,2.81,0,0,1-3,2.78A5.08,5.08,0,0,1,26.88,46,1.8,1.8,0,0,0,26.23,45.74Z"/>
            <path class="cls-1"
                  d="M38.42,45.74c-.41,0-.58.21-.58.68.22.73,1.45,1.16,3.65,1.25,2.8-.09,4.26-1.33,4.45-3.79,0-1.5-1.24-2.68-3.7-3.49-1.84-.58-2.78-1.34-2.8-2.24.12-1.25.89-1.91,2.31-2a4.09,4.09,0,0,1,2,.51,1.42,1.42,0,0,0,.68.26c.51,0,.57-.31.57-.54-.22-.73-1.3-1.18-3.2-1.32-2.3.14-3.56,1.17-3.85,3.17,0,1.39,1.19,2.5,3.55,3.27,2,.64,2.93,1.44,3,2.45a2.81,2.81,0,0,1-3,2.78A5.08,5.08,0,0,1,39.07,46,1.8,1.8,0,0,0,38.42,45.74Z"/>
            <path class="cls-1"
                  d="M51.43,47.67c.57,0,.65-.26.65-.54V35.74c0-.61-.33-.69-.65-.69s-.65.08-.65.69V47.13C50.78,47.41,50.86,47.67,51.43,47.67Z"/>
            <path class="cls-1"
                  d="M62.93,35.05h0c-3.57.23-5.48,2.32-5.77,6.39.29,4,2.2,6.05,5.81,6.23,3.6-.18,5.51-2.23,5.8-6.25C68.46,37.37,66.55,35.28,62.93,35.05Zm0,11.68h0c-2.71-.11-4.17-1.88-4.33-5.28.16-3.43,1.62-5.21,4.33-5.31,2.76.1,4.22,1.88,4.38,5.27C67.14,44.85,65.68,46.62,63,46.73Z"/>
            <path class="cls-1"
                  d="M83.28,35.05c-.33,0-.65.08-.65.69v9.89l-7.26-9.8c-.25-.39-.61-.81-1-.78-.19,0-.6,0-.6.83V47.13c0,.28.08.54.65.54s.65-.26.65-.54v-10L82.29,47a1.21,1.21,0,0,0,.95.65h.12c.4,0,.57-.21.57-.68V35.74C83.93,35.13,83.6,35.05,83.28,35.05Z"/>
        </g>
    </g>
</svg>
