<svg xmlns="http://www.w3.org/2000/svg" viewBox="0 0 75.5 82.5">
    <defs>
        <style>.cls-1{fill:#000;}</style>
    </defs>
    <title>资源 7</title>
    <g id="图层_2">
        <g id="Capa_1">
            <path class="cls-1"
                  d="M62,26.81l2-9.22a.66.66,0,0,0-.44-.76l-9-2.89L51.67,5a.65.65,0,0,0-.76-.44l-9.22,2-7-6.33a.63.63,0,0,0-.87,0l-7,6.33-9.22-2a.65.65,0,0,0-.76.44l-2.89,9L5,16.83a.66.66,0,0,0-.44.76l2,9.22-6.33,7a.63.63,0,0,0,0,.87l6.33,7-2,9.22a.65.65,0,0,0,.44.76l9.24,3L5.65,76a.61.61,0,0,0,.12.67.63.63,0,0,0,.66.19l9.28-2.65,4,7.92a.64.64,0,0,0,.58.36.67.67,0,0,0,.6-.39l7.87-18.38,5.1,4.6a.66.66,0,0,0,.87,0l4.66-4.21,8.31,18a.65.65,0,0,0,.58.38.66.66,0,0,0,.59-.36l4-7.92,9.28,2.66a.66.66,0,0,0,.66-.2.63.63,0,0,0,.12-.67L54.31,54.64l9.23-3a.65.65,0,0,0,.44-.75l-2-9.23,6.33-7a.63.63,0,0,0,0-.87ZM20.21,80.31l-3.58-7.15a.65.65,0,0,0-.77-.33L7.35,75.26l7.34-18.37,2.14,6.65a.65.65,0,0,0,.75.44l9.23-2,.9.81Zm40.94-5-8.52-2.44a.66.66,0,0,0-.76.34l-3.6,7.19L40.36,63.21,41.69,62l9.23,2a.65.65,0,0,0,.75-.44l2.14-6.64Zm-.33-34.19a.66.66,0,0,0-.16.57l1.93,9-8.74,2.82a.63.63,0,0,0-.42.42l-2.82,8.74-9-1.92a.62.62,0,0,0-.57.15L34.25,67l-6.82-6.15a.67.67,0,0,0-.57-.16l-9,1.92-2.82-8.73a.63.63,0,0,0-.42-.42L5.9,50.61l1.94-9a.68.68,0,0,0-.15-.58L1.53,34.25l6.15-6.82a.65.65,0,0,0,.16-.57l-1.94-9,8.75-2.82a.63.63,0,0,0,.42-.42L17.89,5.9l9,1.94a.62.62,0,0,0,.57-.15l6.82-6.16,6.82,6.15a.65.65,0,0,0,.57.16l9-1.94,2.82,8.75a.63.63,0,0,0,.42.42l8.74,2.82-1.92,9a.62.62,0,0,0,.15.57L67,34.25Z"/>
            <path class="cls-1"
                  d="M75,5.61A6.16,6.16,0,0,1,69.89.54a.65.65,0,0,0-1.28,0,6.16,6.16,0,0,1-5.07,5.06.65.65,0,0,0,0,1.28A6.16,6.16,0,0,1,68.61,12a.65.65,0,0,0,1.28,0A6.16,6.16,0,0,1,75,6.89a.65.65,0,0,0,0-1.28ZM71.68,6.86a7.49,7.49,0,0,0-1.82,1.82l-.61.87-.61-.87a7.49,7.49,0,0,0-1.82-1.82L66,6.25l.87-.61a7.63,7.63,0,0,0,1.82-1.81L69.25,3l.61.87a7.49,7.49,0,0,0,1.82,1.82l.87.61Z"/>
            <path class="cls-1"
                  d="M42.34,34.32l4.09-5.74a.91.91,0,0,0,.15-.58.64.64,0,0,0-.25-.4.65.65,0,0,0-.53-.16l-7.14.62-3-6.51c-.07-.18-.13-.29-.46-.51a.79.79,0,0,0-1,.38l-3,6.5-7.14-.63a.84.84,0,0,0-.43.14.69.69,0,0,0-.31.47.75.75,0,0,0,.12.55l4.15,5.8-4.09,5.81a1,1,0,0,0-.16.59.73.73,0,0,0,.79.56l7.14-.63,3,6.52a.58.58,0,0,0,.32.34.79.79,0,0,0,1-.36l3.06-6.42,7.13.62a.76.76,0,0,0,.43-.14.62.62,0,0,0,.3-.46.73.73,0,0,0-.11-.56Zm-4.17,4.75a.79.79,0,0,0-.69.42L34.9,45.05l-2.57-5.54a.7.7,0,0,0-.76-.37l-6,.6,3.59-5a.79.79,0,0,0,0-.87l-3.49-5,6.13.59a.8.8,0,0,0,.7-.42l2.58-5.55,2.57,5.53a.55.55,0,0,0,.68.39l6.11-.62-3.59,5a.75.75,0,0,0,0,.87h0l3.48,5Z"/>
        </g>
    </g>
</svg>
