<svg xmlns="http://www.w3.org/2000/svg" viewBox="0 0 83.43 81.5">
    <defs>
        <style>.cls-1{fill:#000;}</style>
    </defs>
    <title>资源 8</title>
    <g id="图层_2">
        <g id="Capa_1">
            <path class="cls-1"
                  d="M38.48,42.45a.54.54,0,0,0-.4.17l-2.94,2.94a.57.57,0,0,0,0,.8.58.58,0,0,0,.4.16h0a.56.56,0,0,0,.4-.16l2.94-2.94A.54.54,0,0,0,39,43a.55.55,0,0,0-.16-.4A.56.56,0,0,0,38.48,42.45Z"/>
            <path class="cls-1"
                  d="M62.51,18.42a.54.54,0,0,0-.4.17l-20,20a.53.53,0,0,0-.17.4.56.56,0,0,0,.17.4.58.58,0,0,0,.4.16h0a.56.56,0,0,0,.4-.16l20-20a.54.54,0,0,0,.16-.4.55.55,0,0,0-.16-.4A.56.56,0,0,0,62.51,18.42Z"/>
            <path class="cls-1"
                  d="M72.65,8.28a.59.59,0,0,0-.4.16l-5.87,5.88a.57.57,0,0,0,0,.8.61.61,0,0,0,.8,0l5.87-5.87a.57.57,0,0,0-.4-1Z"/>
            <path class="cls-1"
                  d="M18.24,15.51a.54.54,0,0,0-.4-.17.58.58,0,0,0-.57.57.54.54,0,0,0,.17.4L31.68,30.55a.59.59,0,0,0,.8,0,.54.54,0,0,0,.17-.4.56.56,0,0,0-.17-.4Z"/>
            <path class="cls-1"
                  d="M11.18,8.44a.59.59,0,0,0-.4-.16.56.56,0,0,0-.4.16.57.57,0,0,0-.17.41.56.56,0,0,0,.17.4l3.37,3.37a.61.61,0,0,0,.8,0,.57.57,0,0,0,0-.8Z"/>
            <path class="cls-1"
                  d="M82.16,74.08a4.42,4.42,0,0,0-1.68-1l-.34-.12L80,72.59a4.31,4.31,0,0,0-2.72-2.72L77,69.76l-.11-.34a4.39,4.39,0,0,0-1-1.68,4.44,4.44,0,0,0-1.68-1l-.33-.11-.12-.34a4.17,4.17,0,0,0-1-1.67,4.42,4.42,0,0,0-1.68-1l-.34-.11-.12-.34a4.34,4.34,0,0,0-1-1.68l-.14-.12-.69-.63.73-.52a31.31,31.31,0,0,1,9-4.46.67.67,0,0,0,.34-.28.64.64,0,0,0,0-.43l-1.92-6.22a.57.57,0,0,0-.71-.38,39.76,39.76,0,0,0-8.44,3.74l-.5.3-.14-.15-11.27-12,24.51-23a.59.59,0,0,0,.18-.38L81.5.6a.54.54,0,0,0-.17-.43A.56.56,0,0,0,80.89,0L64.59,1a.55.55,0,0,0-.38.18L41.67,25.23,20.76,2.72a.57.57,0,0,0-.34-.18L2.58,0A.53.53,0,0,0,2.1.17a.53.53,0,0,0-.16.48L4.47,18.49a.57.57,0,0,0,.18.34l23,21.37L16.21,52.4l-.5-.3a39.76,39.76,0,0,0-8.44-3.74.57.57,0,0,0-.71.38L4.64,55a.58.58,0,0,0,0,.43.63.63,0,0,0,.34.28,31.31,31.31,0,0,1,9,4.46l.73.53-.67.6a1.14,1.14,0,0,0-.16.15,4.31,4.31,0,0,0-1,1.67l-.12.34-.34.11a4.37,4.37,0,0,0-2.72,2.72l-.12.34-.34.11a4.48,4.48,0,0,0-1.67,1,4.28,4.28,0,0,0-1,1.68l-.11.34-.34.11a4.21,4.21,0,0,0-1.68,1,4.28,4.28,0,0,0-1,1.68l-.11.34L3,73.05a4.27,4.27,0,0,0-1.68,1A4.35,4.35,0,0,0,4.35,81.5a4.3,4.3,0,0,0,4.1-3l.12-.34.34-.11a4.17,4.17,0,0,0,1.67-1,4.23,4.23,0,0,0,1.05-1.68l.11-.34.34-.11a4.28,4.28,0,0,0,1.68-1,4.44,4.44,0,0,0,1-1.68l.11-.33.34-.12a4.17,4.17,0,0,0,1.67-1A4.34,4.34,0,0,0,18,69l.11-.34.34-.12a4.31,4.31,0,0,0,1.67-1l.13-.14.63-.69.52.73a31.57,31.57,0,0,1,4.46,9,.6.6,0,0,0,.28.34.54.54,0,0,0,.43,0l6.22-1.91a.55.55,0,0,0,.33-.27.56.56,0,0,0,0-.44,38.78,38.78,0,0,0-3.74-8.44l-.29-.5L41.74,53.45,54.33,65.29l-.29.5a39.08,39.08,0,0,0-3.75,8.44.67.67,0,0,0,0,.44.57.57,0,0,0,.34.27l6.22,1.92a.59.59,0,0,0,.71-.38,31.31,31.31,0,0,1,4.46-9l.52-.73.61.67.14.16a4.42,4.42,0,0,0,1.68,1l.34.12.11.34a4.34,4.34,0,0,0,1.05,1.68,4.17,4.17,0,0,0,1.67,1l.34.12.11.33a4.52,4.52,0,0,0,1,1.68,4.32,4.32,0,0,0,1.68,1l.34.11.11.34a4.39,4.39,0,0,0,1,1.68,4.28,4.28,0,0,0,1.68,1l.34.11.12.34a4.47,4.47,0,0,0,1,1.68,4.35,4.35,0,0,0,7.42-3.08A4.37,4.37,0,0,0,82.16,74.08ZM5.57,18.13v-.08L3.17,1.24l16.89,2.4.07.06L40.89,26.06,28.42,39.37l-.18-.17ZM7.31,78.38a3.4,3.4,0,0,1-.7,1,3.2,3.2,0,1,1-3.48-5.23L3.57,74l3.92,3.92Zm3.17-3.17a3.18,3.18,0,0,1-.7,1,3,3,0,0,1-1,.7l-.45.18L4.37,73.21l.18-.45a3.15,3.15,0,0,1,.69-1,3.12,3.12,0,0,1,1-.7l.44-.18,3.93,3.93Zm3.17-3.16a3.3,3.3,0,0,1-1.74,1.73l-.44.18L7.54,70l.18-.44a3,3,0,0,1,.7-1,3.18,3.18,0,0,1,1-.7l.44-.18,3.93,3.93Zm3.17-3.18a3.22,3.22,0,0,1-.7,1,3.15,3.15,0,0,1-1,.69l-.45.19-3.92-3.93.18-.45a3.15,3.15,0,0,1,.69-1,3.22,3.22,0,0,1,1.05-.7l.44-.18L17,68.42Zm2.94-2.72a3,3,0,0,1-.47.59,3.13,3.13,0,0,1-1,.7l-.45.18L13.88,63.7l.18-.44a3.14,3.14,0,0,1,.69-1,3,3,0,0,1,.6-.47l.45-.27.4.34a32,32,0,0,1,3.49,3.49l.34.4Zm11.88,7.17.24.7L26.75,75.6,26.52,75a32.43,32.43,0,0,0-20-20l-.65-.22,1.57-5.14.71.25a38.25,38.25,0,0,1,14.41,9A38.29,38.29,0,0,1,31.64,73.32Zm-3.15-9L28,63.62A39.19,39.19,0,0,0,24.3,59l-.48-.51,7.85-7.85a.57.57,0,0,0-.8-.8L23,57.68l-.51-.48a38.78,38.78,0,0,0-4.63-3.71L17.19,53l.2-.21L64.88,2.12l15.44-.94v.28l-.93,15.16-.21.19ZM42.57,52.67,55,41,66.24,53l-.69.48a39.6,39.6,0,0,0-4.63,3.71l-.51.48-7.85-7.85a.57.57,0,0,0-.8.8l7.85,7.85-.48.51a41.23,41.23,0,0,0-3.71,4.62l-.48.7-.21-.2ZM56.9,75h0l-.22.65L51.54,74l.25-.71A37.88,37.88,0,0,1,75.25,49.86l.71-.25,1.57,5.14-.65.22A32.47,32.47,0,0,0,56.9,75Zm8.29-7.51a3.2,3.2,0,0,1-1-.66l0,0a2.77,2.77,0,0,1-.47-.6l-.27-.44.34-.4a31.18,31.18,0,0,1,3.5-3.49l.39-.34.45.27a3.27,3.27,0,0,1,1.29,1.52l.18.44-3.92,3.92Zm3.16,3.17a3.15,3.15,0,0,1-1-.69,3.33,3.33,0,0,1-.7-1l-.18-.44,3.93-3.93.44.18a3.12,3.12,0,0,1,1,.7,3.15,3.15,0,0,1,.69,1l.19.44L68.79,70.8Zm3.17,3.17a3,3,0,0,1-1-.7,3.25,3.25,0,0,1-.7-1l-.18-.45,3.93-3.93.44.18a3,3,0,0,1,1,.7,3,3,0,0,1,.7,1l.18.44L72,74ZM74.69,77a3.15,3.15,0,0,1-1-.69,3.33,3.33,0,0,1-.7-1.05l-.18-.44,3.93-3.93.44.18a3,3,0,0,1,1,.7,3,3,0,0,1,.7,1l.18.45-3.92,3.92Zm6.66,2.47a3.2,3.2,0,0,1-4.53,0,3.4,3.4,0,0,1-.7-1l-.18-.45L79.86,74l.44.18a3.2,3.2,0,0,1,1,5.23Z"/>
        </g>
    </g>
</svg>
